<?xml version="1.0" standalone="no"?>
<svg
  width="600"
  height="600"
  viewBox="0 0 600 600"
  xmlns="http://www.w3.org/2000/svg"
>
  <g transform="translate(300,300)">
    <path d="M119.8,-191.5C138.3,-174.5,124.6,-112.6,139.7,-67.4C154.8,-22.2,198.7,6.4,196.7,29.1C194.7,51.8,146.8,68.8,116.4,97.1C86,125.3,73,164.8,49.5,174.4C26,183.9,-8,163.4,-37.1,146C-66.3,128.5,-90.6,114,-106.7,93.5C-122.8,73,-130.7,46.5,-153.4,10.8C-176.1,-24.9,-213.6,-69.8,-216.1,-112.9C-218.6,-156.1,-186,-197.5,-144.2,-203.9C-102.4,-210.3,-51.2,-181.6,-0.3,-181.2C50.6,-180.8,101.3,-208.6,119.8,-191.5Z" fill="#009688" />
  </g>
</svg>
  