<?xml version="1.0" standalone="no"?>
<svg
  width="600"
  height="600"
  viewBox="0 0 600 600"
  xmlns="http://www.w3.org/2000/svg"
>
  <g transform="translate(300,300)">
    <path d="M133.9,-215.6C166.5,-187.4,181,-138.3,195.8,-93.2C210.6,-48,225.5,-6.7,229,39.4C232.4,85.5,224.3,136.4,194.5,165.6C164.7,194.9,113.2,202.5,64.1,215.9C14.9,229.3,-31.8,248.5,-78,244.6C-124.2,240.7,-169.8,213.7,-199.3,175.2C-228.7,136.7,-242,86.7,-240.4,39.9C-238.8,-6.8,-222.2,-50.4,-206.5,-98.3C-190.8,-146.2,-175.9,-198.4,-141.7,-225.9C-107.4,-253.5,-53.7,-256.2,-1.5,-253.8C50.6,-251.5,101.3,-243.9,133.9,-215.6Z" fill="#33d7a3" />
  </g>
</svg>
  