<?xml version="1.0" standalone="no"?>
<svg
  width="600"
  height="600"
  viewBox="0 0 600 600"
  xmlns="http://www.w3.org/2000/svg"
>
  <g transform="translate(300,300)">
    <path d="M111,-173.8C152.9,-145.9,202,-130.3,233.7,-96.3C265.4,-62.3,279.7,-10,260.6,28.8C241.6,67.7,189.2,93.1,150.1,119.6C110.9,146.2,85,173.8,51.4,191C17.7,208.2,-23.7,214.9,-67.8,211C-111.9,207.1,-158.7,192.6,-189.6,161.7C-220.5,130.7,-235.5,83.4,-229.7,40.7C-224,-2,-197.5,-40.1,-178.1,-80.8C-158.7,-121.6,-146.4,-165.1,-117.9,-199.1C-89.4,-233.1,-44.7,-257.5,-5,-249.7C34.6,-241.8,69.2,-201.7,111,-173.8Z" fill="#33d7a3" />
  </g>
</svg>
  