<?xml version="1.0" standalone="no"?>
<svg
  width="600"
  height="600"
  viewBox="0 0 600 600"
  xmlns="http://www.w3.org/2000/svg"
>
  <g transform="translate(300,300)">
    <path d="M141.9,-195.2C177,-198.1,194,-147.3,213.6,-99.1C233.1,-51,255.1,-5.6,255.5,41.3C255.8,88.1,234.5,136.4,199,166.4C163.6,196.4,114.1,208,66.6,217.9C19.2,227.7,-26.2,235.7,-49.4,209.9C-72.6,184.1,-73.7,124.5,-73.7,85.5C-73.6,46.6,-72.5,28.4,-87.4,5.1C-102.4,-18.2,-133.5,-46.7,-136.6,-71.7C-139.7,-96.7,-114.7,-118.2,-87.3,-118.8C-59.8,-119.4,-29.9,-99.2,11.7,-117.4C53.3,-135.7,106.7,-192.3,141.9,-195.2Z" fill="#009688" />
  </g>
</svg>
  