<svg version="1" xmlns="http://www.w3.org/2000/svg" width="170.667" height="170.667" viewBox="0 0 128.000000 128.000000"><path d="M65 7.8c-5.8 2.4-34.5 20.5-38.8 24.6-7.8 7.3-11 20.8-7.8 32.1 1.7 5.6 1.7 5.9-.4 10.8-3.3 7.5-2.6 20.1 1.5 27.5 7.9 14.5 25.5 22.2 40.6 17.9 6.1-1.8 36.8-20.8 42-26 7.5-7.4 10.5-20.6 7.2-31.1-1.8-5.9-1.8-6.1.1-9.9 3-6.2 3.3-17.8.6-24.9-2.8-7.6-10.1-15.6-17.7-19.3C84.7 5.8 72 5 65 7.8zm21.7 13.3c8.2 4 13.3 13.3 11.8 21.8-.8 4.6-1.5 4.9-5.3 2.3-1.5-1-4.2-2.4-5.9-3.1-2.1-.9-3.3-2-3.3-3.2 0-2.8-3.8-6.2-6.4-5.7-4 .8-31.6 19.2-32.2 21.5-1.4 5.2 4.6 9 9.5 5.9 11.4-7.3 15.7-9.1 21.1-9 12 .2 21 8.9 21 20.4 0 6.1-1.8 10.6-5.6 14.1-3.7 3.4-29 19.4-33.7 21.4-5.4 2.2-10.6 1.9-16.8-1.3-8.9-4.5-13.3-13.1-11.5-22.5l.7-3.5 6.7 3.5c5.1 2.6 6.9 4.1 7.4 6.2.8 2.9 5.1 5.6 7.1 4.5 8.1-4.5 30-19.1 30.7-20.4 1.2-2.3-.2-6.5-2.5-7.4-3.2-1.2-5.2-.5-12.6 4.1-7.2 4.6-7.6 4.8-15 4.8-6.6 0-8.1-.4-11.8-2.8-9.9-6.6-12.6-19.6-6-28.8 1.9-2.6 29.3-20.8 35.4-23.5 4.6-2 12.2-1.7 17.2.7z"/></svg>