<svg version="1" xmlns="http://www.w3.org/2000/svg" width="1173.333" height="1173.333" viewBox="0 0 880.000000 880.000000"><path d="M558.8.5c-.2.2-4.6.6-9.8.9-10.1.6-17.7 1.2-25 2-2.5.3-6.5.8-9 1.1-5.4.6-18.7 2.5-21.5 3.2-1.1.2-3.3.6-5 .8-1.6.3-5.2.9-8 1.5-2.7.6-5.9 1.3-7 1.5-5 1-15.6 3.8-21.9 5.6-3.8 1.1-7.6 2.2-8.5 2.4-5.3 1.2-33 12.1-34.6 13.6-.5.5-1.4.9-2 .9-1 0-14.4 7-24.9 12.9-3.7 2.1-25.9 16.6-28.1 18.4-.5.4-4.4 3.3-8.5 6.4-25.8 19.4-51.6 45.4-72.6 73.3-7.6 10.1-10.7 14.4-12.9 17.9-.6.9-2.9 4.4-5.3 7.9-2.3 3.5-4.2 6.6-4.2 6.9 0 .2-1.5 2.8-3.4 5.6-7.4 11.5-22.2 40.7-28.6 56.7-1 2.5-2.6 6.3-3.6 8.5s-1.9 4.4-2.1 5c-.8 2.7-14.3 42-14.4 42 0 0-.2.9-.3 2-.2 1.1-.9 4-1.6 6.5-1.8 6-1.5 5-4.4 17.5-2.7 11.5-7.6 37.1-7.5 38.3.1.4 0 .9-.1 1.2-.7 1.7-2.3 19-2.3 23.5.2 11.7 9.7 22.4 20.4 23 2.2.1 4.3.5 4.6.9.3.3 1.2.1 2-.6.7-.6 1.6-.8 1.9-.5.8.8 7.4-2.6 11.2-5.7 4-3.5 7-10.1 7.7-17.2.3-3.3.7-7 1-8.4.2-1.4.7-4.8 1-7.5.8-5.9 1.1-8 1.9-12 .4-1.7.9-4.6 1.2-6.5 1.2-7.4 7-31.9 9-38.1.9-2.5 1.7-5.2 1.8-6 .4-2.4 5.8-19.3 6.6-20.9.5-.8 1.6-3.8 2.5-6.5.9-2.8 2-5.9 2.5-7 .5-1.1 2.5-5.8 4.4-10.5 3.8-9.5 10.2-23.7 11.6-26 .5-.8 2.1-4 3.6-7 11.9-23.7 33.2-54.9 51.9-75.9 5.2-5.9 22.9-23.4 28.6-28.3 11.3-9.8 28.1-22.8 29.4-22.8.3 0 1.5-.8 2.6-1.8 1-1.1 3.2-2.5 4.7-3.3 1.5-.8 3.3-2 4-2.7.7-.6 1.7-1.2 2.2-1.2.5 0 1.5-.6 2.2-1.3.8-.6 2.9-2 4.8-3.1C415.6 83 429 76 429.5 76c.3 0 2.9-1.1 5.7-2.4 10-4.4 36.7-12.9 44.7-14.2 1.4-.2 3.7-.7 5.1-1.1 4-1 4.4-1.1 7.5-1.7 1.7-.3 4.1-.8 5.5-1 2.9-.6 9.1-1.6 14-2.2 5.5-.8 7.5-1.1 7.5-1.3 0-.1 2.7-.4 6-.6 3.3-.2 8-.6 10.5-1 6.7-.9 21.1-1.7 33.2-1.8 6-.1 10.8-.5 10.8-.8 0-.4 1.6-.3 3.5.1 2.4.5 3.3.4 2.8-.3-.3-.6-.1-.7.5-.3 1.7 1 9.3 1.3 9.8.4.3-.5 1-.6 1.5-.2.5.3 8.5.7 17.7.9 9.2.3 19.2.7 22.2.9 3 .2 10 .7 15.5 1.1 10.4.7 11.4.8 23 2 3.9.4 8.4.9 10 1 9.1.8 18.3 1.7 20.5 2.1 3.9.7 9.2 1.4 14.6 1.9 2.7.2 4.9.5 4.9.5 0 .2 3.6.8 9 1.4 2.8.3 6.1.7 7.5 1 1.4.2 4.5.7 7 1 2.5.3 5.6.8 7 1.1 1.4.3 4.3.7 6.5 1 2.2.3 5.1.8 6.5 1 1.4.2 4.1.6 6 .9 10.1 1.4 17.6 2.8 18.1 3.4 1 1.2 5.7 18.3 8.9 32.2 1.2 5.2 2.8 12.4 3.7 16 .8 3.6 1.7 7.6 1.9 9 .3 1.4.7 3.2.9 4 .2.8.7 2.8 1 4.5.2 1.6.7 4.1 1 5.5.5 2.3 2.7 14.5 4 21.5.3 1.6.8 4.6 1.1 6.5.2 1.9.7 4.6.9 6 .3 1.4.7 4.3 1 6.5.3 2.2.8 5.1 1 6.5.6 2.9 1.5 10.6 2 16.5.2 2.2.5 4 .5 4 .1 0 .3 1.6.5 3.5.1 1.9.6 6 .9 9 .8 6.2 1.2 11 2.3 26 1 13.6 1 72.9 0 84.5-.5 4.9-1 11.5-1.3 14.5-.4 5.6-1.1 10.8-1.9 14.9-.2 1.3-.7 4.9-1.1 8-.3 3.1-1 6.3-1.5 7.2-.4.9-.6 1.9-.3 2.1.2.3 0 2.7-.7 5.4-1 4.7-1.4 6.8-2.3 11.6-1.4 8.2-11.3 40.1-15.6 50.3-9.1 21.7-24.3 48.4-36.5 63.9-11.8 15-28.5 32.6-40 42.1-2.6 2.2-5.3 4.5-5.9 5-3.6 3.3-18.3 13.7-28.4 19.9-9.6 6.1-27.2 15.7-29.2 16.1-.3.1-2.5 1.1-5 2.4-8.2 4.1-33.7 13.7-35.2 13.3-.5-.1-.8.2-.8.6 0 .4-.8.8-1.7.9-1 .1-3.8.8-6.3 1.7-8.5 2.8-35.6 9.3-42.5 10.1-2.8.3-7.3 1-13.5 2-3.1.6-16 1.7-22 1.9-2.5.1-5 .4-5.5.8-.6.3-2.3.8-3.8 1.2-4.3 1-11.2 8.5-13 14.2-1.9 5.8-1.6 13.7.7 18.2 3.2 6.2 9.7 11.5 16.1 13 3.6.8 23.2 0 31.5-1.3 1.4-.3 4.3-.7 6.5-1 2.2-.3 5.1-.8 6.5-1 1.4-.3 4.3-.8 6.5-1.1 2.2-.3 4.5-.7 5-.8.6-.2 3.7-.8 7-1.5s8.9-1.9 12.4-2.7c3.6-.9 7.2-1.7 8-1.9.9-.2 7-2.1 13.6-4.1 6.6-2 12.5-3.7 13-3.9.6-.1 2.1-.7 3.5-1.2 1.4-.6 5.7-2.2 9.5-3.6 13.2-4.9 21.6-8.4 22.7-9.5.7-.7 1.7-1.2 2.3-1.2.6 0 3.5-1.1 6.3-2.5 2.9-1.4 5.5-2.5 5.8-2.4.4 0 1-.3 1.3-.8.3-.4 2.4-1.7 4.6-2.8 6.7-3.3 29.3-17.2 37.2-22.7 19.6-13.8 43.8-35.8 58.9-53.4 8-9.3 21.4-27 21.4-28.3 0-.5.3-1.1.8-1.3.6-.3 2.9-3.7 11.1-16.8 3.2-5 16-29.8 16.6-32 .3-.9 2.6-6.4 4-9.5 1.9-4 7.5-18.8 7.5-19.7 0-.4.5-1.9 1.2-3.5 1.1-2.9 1.3-3.4 2.2-6.8.3-1.1 1.9-6.7 3.6-12.5 1.7-5.8 3.3-11.9 3.6-13.5.3-1.7 1.2-5.9 2-9.5.8-3.6 1.7-8.1 2-10 .3-1.9.9-5.8 1.4-8.5 1.9-10.3 3-17.8 3.5-24.5.2-2.5.4-4.5.5-4.5.1 0 .3-2.3.5-5 .2-2.8.7-8.4 1.1-12.5 1-9.9 1-80 0-91.5-.5-5-1-11.5-1.1-14.5-.2-3-.4-5.5-.5-5.5-.1 0-.3-2.5-.5-5.5s-.6-7-.9-8.9c-.4-1.8-.9-5.9-1.2-9-.6-7.3-1.2-12.6-1.4-12.6-.1 0-.3-1.1-.5-2.5-.3-3.3-1.4-10.8-2-14-.2-1.4-.7-4.1-.9-6-.6-3.6-1.1-6.8-2.2-13-.4-1.9-.8-4.2-.9-5-1.1-6.9-1.7-9.8-3.5-19-1.2-5.8-2.3-11.5-2.6-12.6-.2-1.2-1.8-8-3.5-15-1.7-7.1-3.2-13.6-3.4-14.4l-2-8c-.9-3.6-1.9-7.2-2-8-.8-3.2-5.6-19.7-6.7-22.5-.6-1.7-1.8-3.8-2.7-4.9-.9-1-1.5-1.9-1.3-2 .9-.3-2-5.8-4.7-8.9-3.7-4.1-9.8-7.2-16.1-8.1-2.5-.3-5.6-.8-7-1.1-1.4-.3-3.8-.7-5.5-1-6.9-.9-11.1-1.6-13.5-2.1-1.4-.2-4.3-.7-6.4-.9-2.2-.3-5.3-.8-7-1.1-1.7-.4-4.7-.8-6.6-1-1.9-.1-3.5-.3-3.5-.4 0-.2-3.5-.8-8.8-1.4-2.1-.2-5.7-.7-8-1.1-9.9-1.6-23.7-3.4-30.2-4-2.7-.2-5.9-.6-7-.9-1.1-.2-5.1-.7-9-1-6.9-.7-11.3-1.1-19.8-2.1-4.6-.5-18.4-1.6-25.7-2-2.5-.2-4.5-.4-4.5-.5 0-.8-90.9-2.3-91.7-1.5z"/><path d="M700.6 107.7c-.3.3-1.3.6-2.3.7-2.8.2-9 3.5-11.8 6.3-14.1 14.2-10.7 37.4 6.8 46.4 8.4 4.4 19.9 3.9 27.7-1 3.1-2 11-10.2 11-11.6.1-.6.9-3.4 1.9-6 .8-1.9.7-11.2-.1-14.5-1.7-6.9-8.8-15.1-15.8-18.3-4.2-1.9-16.1-3.2-17.4-2zM454 136.5c-6.2 1.6-10.1 3.8-14.3 8-18 18-3.9 49.5 21.4 48.1 6.9-.4 9.1-.8 9.9-1.7.3-.3 2.3-1.6 4.5-2.9 2.2-1.3 4.8-3.3 5.7-4.4 1-1.2 2.2-2.6 2.7-3.2.5-.7.7-1.5.4-1.8-.4-.3-.2-.6.4-.6 1 0 1.6-1.5 3.1-7.5.7-2.5.7-9.2.1-12.5-2.6-14.5-19.6-25.2-33.9-21.5zM726.8 273.7c-1.6.2-2.8.9-2.8 1.4 0 .6-.4.8-.8.5-1.4-.8-8.6 4.9-11.5 9.1-3.8 5.6-5.4 11-5.2 17.8.4 15.8 13 27.5 29.1 27.1 24.8-.7 36.7-30.2 19.5-48.2-6.1-6.5-17.5-9.6-28.3-7.7zM351 302c-8 2.3-15.5 8.3-19.3 15.5-2.9 5.6-3.2 16.3-.6 23 2.8 7.5 11 15.1 17.4 16.2 1 .2 2.2.7 2.5 1.1.8 1.2 11.1.7 15.5-.8 6.4-2.1 13.7-8 15-12.1.4-1.1 1-1.9 1.5-1.9s1.4-2.6 2-5.7c1.3-6.2.7-15.2-1.2-18.7-.7-1.1-1.2-2.4-1.3-2.8 0-.7-6.6-7.8-8.6-9.3-5.1-3.8-17.1-6.2-22.9-4.5zM527.7 331.6c-16 5.7-23.4 23.4-16.3 39 6.1 13.3 21 19.6 35.2 14.8 5-1.7 5.8-2.2 10.8-7.1 5.6-5.4 7.9-11.4 7.9-20.8 0-10.4-6.7-20.5-16.3-24.8-5.5-2.4-16.1-3-21.3-1.1zM32.8 384.2c-1.5.5-3 1.9-3.4 3.1-.7 2.1-.6 23.4 0 28.7.2 1.4.7 5.6 1 9.3.4 3.7.9 7.8 1.2 9 .2 1.2.7 3.5 1 5.2.2 1.6 1 4.8 1.5 7 .6 2.2 1.2 4.7 1.4 5.5.2.8 1.4 4.5 2.8 8.1 7.5 19.8 17.6 32.4 34.2 42.6 8.7 5.4 21.3 8.4 36.5 8.8 11.3.3 15.9-.1 25.5-1.9 1.7-.3 4.3-.8 5.9-1.1 10.2-2 35.5-11.8 35.7-13.9.5-4.8.2-6-2.1-7.7-1.4-1-4.1-1.9-6-2-1.9-.2-3.9-.5-4.5-.8-.5-.3-2.1-.7-3.5-.9-3.1-.4-16.6-5-20-6.8-1.4-.7-4-1.8-5.7-2.6-1.8-.7-3.3-1.6-3.3-2 0-.5-.6-.8-1.3-.8-.7 0-4.4-2-8.1-4.5-3.8-2.5-7-4.5-7.2-4.5-.2 0-1.2-.7-2.1-1.5-1-.8-4.7-3.7-8.3-6.6-11.1-8.8-30.7-28.5-43.1-43.4-4.6-5.5-6.1-7.2-8.4-9.8-1.1-1.2-4.2-4.8-6.8-7.9-6.6-7.9-9.5-9.8-12.9-8.6zM656.4 426.5c-2.1.6-5 1.7-6.2 2.4-3.7 2-10.2 8.2-10.2 9.7 0 .8-.4 1.4-.9 1.4s-1.2 1.2-1.6 2.7c-.5 1.6-1 3.5-1.3 4.3-.6 2.3-.5 12.2.2 15.4.8 3.2 5.2 10 8.8 13.3 4.3 4 11.7 6.6 18.8 6.6 3.6 0 7.9-.6 9.5-1.3 1.7-.6 3.1-1.1 3.3-1 .1 0 .9-.5 1.6-1.2.8-.7 2.6-2.2 4.1-3.3 5.1-3.7 9.7-13.1 9.9-20.5.7-18.7-18.3-33.8-36-28.5zM461.8 505.5c-.3.3-2.6.8-5.1 1-2.5.2-6.3 1.2-8.4 2.1-4.5 2.1-12.3 9.1-12.3 11.1 0 .7-.4 1.3-.9 1.3-1.2 0-3.3 7.9-3.5 13.2-.2 4.3 2.9 15 4.5 15.6.5.2.9.8.9 1.2 0 1.5 4.8 5.8 9.3 8.4 14.3 8.3 32.7 2.2 39.9-13.4 4.9-10.6 1.8-24.5-7.2-32.8-2.8-2.6-9.6-5.9-13.1-6.4-1.3-.2-2.7-.6-3-1.1-.3-.4-.8-.5-1.1-.2zM147.7 551.6c-.1.1-2.9.4-6.2.7-13 1.1-27.9 5.6-42.5 12.7-10.8 5.3-29 16.7-29 18.1 0 .5-.5.9-1.1.9-.6 0-3.6 2.1-6.7 4.7-3.1 2.7-6.5 5.5-7.6 6.3-3.6 2.8-27 26.4-33.2 33.5-15.9 18.4-17.5 21.3-13.4 25 1.6 1.5 2.8 1.6 7.7.9 6.9-1 14.9-.7 18.3.6.3.1.9.2 1.3.1 1.5-.2 26.5 8.1 34.2 11.4 2.9 1.3 17.5 6.8 18.5 7.1.8.1 4.3 1.5 6.5 2.5 1.1.4 5.3 1.8 9.3 3 3.9 1.1 7.2 2.3 7.2 2.5 0 .3-2 4.3-4.4 8.9-2.5 4.7-4.3 8.5-4 8.5.2 0-.3 1.5-1.3 3.2-4.2 8.1-13.1 38.8-14.7 51.2-.4 2.7-.9 5.2-1.1 5.5-.1.3-.6 3.5-1 7.1-.4 3.6-.9 7.3-1.1 8.3-.4 2.2-1.4 13.7-2 23.2-.7 11.6-.3 66 .6 66 .1 0 .3 2.7.5 6s.4 6.5.4 7.1c.1 1.2 4.4 3.4 6.6 3.4.8 0 2.3-.9 3.2-1.9 6.8-7.3 8.5-8.9 11-10.1 1.5-.8 3.6-2.1 4.6-2.9.9-.8 1.7-1.1 1.7-.7 0 .4 1.2.1 2.8-.7 4.8-2.6 7.6-3.6 14.2-5.7 7-2.1 30.8-7.9 35-8.6 1.4-.2 3.6-.6 5-.9 1.4-.3 4.1-.8 6-1.1 1.9-.3 5.3-1 7.5-1.6 2.2-.5 5.6-1.2 7.5-1.4 1.9-.2 7.8-1.3 13-2.4 5.2-1.1 10.9-2.3 12.5-2.6 1.7-.3 4.6-.9 6.5-1.4 1.9-.5 4.7-1.1 6.1-1.4 4.5-.7 18.1-4.7 24.6-7.1 3.4-1.3 6.4-2.1 6.7-1.8.3.4.6.2.6-.3 0-.6 1.6-1.6 3.5-2.3 4.4-1.5 13.1-7.5 16.9-11.5 1.6-1.7 3.8-5.1 4.9-7.6 2.2-4.8 3-14.7 1.4-16.8-.5-.6-.7-1.2-.4-1.2.9 0-3-8.7-5.2-11.9-5.2-7.4-16.1-30.6-17.8-37.6-.9-3.9-1.1-5-1.3-5-.3 0-1.4-4.9-2.8-12.6-1-5.1-.8-25.9.3-29.9.4-1.4.8-3.4.9-4.5.2-1.1.4-2 .5-2 .2 0 .4-.8.7-1.8 3.7-15.2 13.5-30.5 30.9-47.9 8.3-8.2 9.6-10 9-12-.4-1.3-1.2-2.9-1.9-3.5-2.6-2.9-28.8-7.7-43.8-8.2-1.9-.1-3.5-1.3-5.7-4.4-5.7-7.9-7.4-9.9-15.9-19.2-6-6.5-30.6-24.5-33.6-24.5-.6 0-1.6-.4-2.2-.9-3-2.7-21.8-8.4-31.9-9.6-4.8-.6-16.5-1.2-16.8-.9zm9.2 12.8c.5.4 1.2.2 1.6-.4.4-.6 1.1-.8 1.6-.4.5.3 2.2.7 3.7.9 3.9.5 12.3 2.4 15.2 3.4 3.3 1.2 5.3 1.8 6.3 2 1.9.3 16.9 8.8 22.7 12.9 6.9 5 20.9 18.4 25.3 24.3l2.7 3.6-6 .2c-3.3.1-6.7.4-7.7.5-1 .2-4.7.7-8.3 1.1-3.6.4-6.8.9-7.1 1.1-.4.2-2.4.7-4.5 1-12.8 2-36.6 12.3-50 21.6-8.5 5.8-24.4 20.7-24.4 22.8 0 .7-.3 1-.7.7-.3-.4-2.6 2-4.9 5.3l-4.4 5.9-5.2-1.5c-5.2-1.6-20.3-7-47.8-17.3-7.4-2.8-14.4-5.3-15.5-5.5-1.1-.3-4.2-1.1-6.9-2-2.7-.8-7.3-1.8-10.2-2.2-3-.3-5.4-.9-5.4-1.3 0-2.8 30.8-33.6 43-43.1 2.5-1.9 4.7-3.7 5-4 .5-.5 11.4-8.1 15.5-10.8 3.7-2.4 26.2-13.3 28.2-13.6 1.1-.3 4-1.1 6.4-1.9 4.7-1.6 8.3-2.3 16.4-3.3 2.8-.3 5.1-.7 5.2-.8.5-.5 9.3.3 10.2.8z"/><path d="M319 630.8c-2.9.9-20.7 19.8-24.8 26.2-2.2 3.6-4.6 7-5.1 7.7-.6.7-1.1 1.9-1.1 2.6 0 .8-.7 2-1.5 2.7-.8.7-1.5 2-1.5 3 0 .9-.3 2-.7 2.3-.7.8-4.2 10.2-4.7 13.2-.2 1.1-.9 3.9-1.4 6.2-.5 2.3-.9 10-.7 17 .2 12.5 1.6 20.7 5 29.5.8 2.1 1.3 3.8 1 3.8-.2 0 2.2 5.1 5.4 11.2 9.7 19.1 19.2 31.7 37.6 50.1 6.2 6.2 12.5 12.3 14.1 13.6 10 8.4 20.9 17.1 21.6 17.1 1.1 0 1-1.7-.1-2.4-.9-.6-.8-19.2.2-21.6.3-.8.8-2.9 1-4.5.5-3.3 2.5-11.2 3.4-13.5.3-.8.7-2 .8-2.5.2-.6 1-3.3 1.8-6 4.1-13.5 7.9-26.2 8.2-27.5.2-.8 1-4.2 1.8-7.5.9-3.3 1.8-7.8 2.2-10 .3-2.2.9-5.8 1.2-8 1.8-11.3.1-34.9-2.9-40.8-.5-1-1.1-2.7-1.3-3.7-1.4-7.5-14.4-26.7-22.8-33.9-1-.9-3.5-3.1-5.5-4.9-4-3.6-22.4-16.2-23.6-16.2-.5 0-2-.8-3.4-1.9-1.5-1-3.4-1.6-4.2-1.3zM436.1 719.6c-3.5 5.3-11.5 21.9-11.2 23.1.1.2.1.4 0 .5-1.2 4.2-1.5 19.7-.5 24.3 1.6 7 6.5 17.7 10.5 22.8 2.6 3.4 17.1 17.8 17.1 17 0-.3 1 .3 2.3 1.4 1.2 1.2 4.9 3.8 8.1 5.8 8.3 5.3 32.4 17.1 33.2 16.3.2-.2-.3-2.2-1.1-4.3-1.5-4.6-1.7-17.8-.4-27.1 3.5-24.6 2.6-42.2-2.8-54.4-2.1-4.6-8.1-13-11-15.3-1.3-1-3-2.5-3.7-3.3-.8-.8-1.9-1.4-2.4-1.4-.6 0-1.2-.3-1.4-.8-1.2-2.7-23.4-11.2-29.2-11.2-2.7 0-3.6.8-7.5 6.6z"/></svg>