<svg xmlns="http://www.w3.org/2000/svg" viewBox="0 0 1117 858" width="1117" height="858">
	<defs>
		<linearGradient id="grd1" gradientUnits="userSpaceOnUse"  x1="612.42" y1="591.78" x2="612.42" y2="95.54">
			<stop offset="0" stop-color="#808080" stop-opacity="0.25" />
			<stop offset="0.54" stop-color="#808080" stop-opacity="0.12" />
			<stop offset="1" stop-color="#808080" stop-opacity="0.1" />
		</linearGradient>
		<linearGradient id="grd2" gradientUnits="userSpaceOnUse"  x1="268579.193" y1="742531.281" x2="268579.193" y2="192383.382">
			<stop offset="0" stop-color="#808080" stop-opacity="0.25" />
			<stop offset="0.54" stop-color="#808080" stop-opacity="0.12" />
			<stop offset="1" stop-color="#808080" stop-opacity="0.1" />
		</linearGradient>
	</defs>
	<style>
		tspan { white-space:pre }
		.shp0 { opacity: 0.102;fill: #33d7a3 } 
		.shp1 { fill: none;stroke: #535461;stroke-width: 2 } 
		.shp2 { fill: #33d7a3 } 
		.shp3 { opacity: 0.251;fill: #000000 } 
		.shp4 { opacity: 0.102;fill: #000000 } 
		.shp5 { fill: #ffd037 } 
		.shp6 { fill: url(#grd1) } 
		.shp7 { fill: #ffffff } 
		.shp8 { fill: #5a5773 } 
		.shp9 { opacity: 0.2;fill: #5a5773 } 
		.shp10 { fill: url(#grd2) } 
		.shp11 { fill: #efb7b9 } 
		.shp12 { fill: #ff6484 } 
		.shp13 { fill: #444053 } 
		.shp14 { fill: #a1616a } 
		.shp15 { fill: #925978 } 
		.shp16 { fill: #000000 } 
	</style>
	<path id="Layer" class="shp0" d="M1089.16 582.74C1088.16 583.47 1087.24 584.18 1086.26 584.87C1085.36 585.51 1084.44 586.13 1083.52 586.74C1082.59 587.35 1081.66 587.94 1080.71 588.52C1079.77 589.09 1078.81 589.65 1077.85 590.2C1076.88 590.74 1075.91 591.27 1074.93 591.78C1054.35 602.63 1028.98 607.93 1004.27 611.53C948.85 619.61 892.27 621.18 835.93 622.72C683.7 626.9 531.1 631.07 379.24 621.44C319.24 617.64 257.92 611.28 203.55 591.78C195.76 588.99 188.12 585.92 180.63 582.56C165.48 575.75 150.93 567.46 138.83 557.56C127.46 548.28 118.24 537.62 112.73 525.5C101.24 500.26 107.32 471.91 120.44 447.17C121.8 444.67 123.21 442.19 124.66 439.74C126.1 437.29 127.6 434.86 129.13 432.46C130.66 430.06 132.24 427.69 133.86 425.35C135.47 423 137.13 420.69 138.83 418.4C148.96 404.47 160.13 390.94 170.32 377.02C206.58 327.54 230.24 264.94 196.77 214.19C187.15 199.61 173.25 186.81 165.41 171.59C155.41 152.12 156.18 130.5 159.36 109.5C159.77 106.83 160.21 104.19 160.67 101.58C166.1 70.44 176.32 36.89 207.83 17.45C240.56 -2.75 287.04 -1.73 327.66 5.45C390.83 16.73 449.1 40.21 507.99 61.41C566.88 82.61 628.49 101.98 693.21 104.06C750.36 105.9 817.02 92.13 854.95 56.34C891.79 21.58 961.04 18.93 1010.95 39.93C1045.21 54.34 1070.77 80.3 1081.55 109.5C1082.1 110.96 1082.6 112.44 1083.07 113.93C1083.54 115.42 1083.97 116.93 1084.36 118.44C1084.75 119.95 1085.11 121.47 1085.42 123.01C1085.73 124.54 1086.01 126.07 1086.24 127.62C1086.46 129.03 1086.64 130.45 1086.78 131.87C1086.92 133.29 1087.03 134.72 1087.1 136.14C1087.17 137.57 1087.2 139 1087.2 140.43C1087.2 141.86 1087.16 143.28 1087.08 144.71C1086.93 147.53 1086.64 150.32 1086.24 153.08C1077.9 210.7 1017.87 256.15 981.38 307.62C963.55 332.76 950.96 362.96 963.22 390.07C981.92 431.38 1046.95 446.07 1086.22 476.81C1088.06 478.21 1089.86 479.67 1091.59 481.2C1093.32 482.73 1095 484.33 1096.61 485.98C1098.23 487.64 1099.78 489.36 1101.27 491.13C1102.75 492.9 1104.17 494.73 1105.52 496.61C1124.57 523.97 1117.54 560.92 1089.16 582.74Z" />
	<g id="d00831fc-a64a-413c-b5dd-d7bd6eafa01d">
		<path id="Layer" class="shp1" d="M257.99 324.86C257.99 324.86 211.99 243.34 142.67 219.86C113.58 210 88.19 191.46 70.83 166.12C68.78 163.11 66.79 160.06 64.88 156.96C62.97 153.87 61.12 150.73 59.35 147.55C57.59 144.37 55.89 141.14 54.27 137.88C52.65 134.63 51.1 131.33 49.63 128" />
		<path id="Layer" class="shp2" d="M6.04 112.91C13.94 120.54 50.72 128.54 50.72 128.54C50.72 128.54 41.72 92.02 33.8 84.35C29.99 80.74 24.92 78.79 19.68 78.9C14.43 79.01 9.45 81.18 5.8 84.94C2.14 88.7 0.12 93.75 0.17 99C0.21 104.24 2.32 109.25 6.04 112.95L6.04 112.91Z" />
		<path id="Layer" class="shp2" d="M26.85 179C37.64 181.14 72.85 167.81 72.85 167.81C72.85 167.81 45.4 142.05 34.6 139.91C29.47 139.01 24.18 140.15 19.88 143.09C15.58 146.04 12.61 150.55 11.59 155.66C10.58 160.77 11.61 166.08 14.46 170.44C17.31 174.81 21.76 177.88 26.85 179Z" />
		<path id="Layer" class="shp2" d="M102.6 250.54C113 246.94 136.6 217.67 136.6 217.67C136.6 217.67 99.92 209.28 89.53 212.88C84.38 214.48 80.1 218.1 77.66 222.91C75.23 227.72 74.84 233.32 76.6 238.42C78.36 243.51 82.11 247.68 87 249.97C91.89 252.25 97.49 252.46 102.53 250.54L102.6 250.54Z" />
		<path id="Layer" class="shp2" d="M172.1 291.73C182.96 289.93 211.2 265.08 211.2 265.08C211.2 265.08 176.47 250.61 165.61 252.4C160.39 253.26 155.74 256.16 152.66 260.45C149.58 264.75 148.33 270.09 149.19 275.31C150.05 280.53 152.95 285.18 157.24 288.26C161.54 291.34 166.88 292.59 172.1 291.73L172.1 291.73Z" />
		<path id="Layer" class="shp2" d="M103.49 139.27C103.49 150.27 83.59 182.2 83.59 182.2C83.59 182.2 63.65 150.29 63.64 139.29C63.52 133.93 65.57 128.74 69.32 124.91C73.07 121.08 78.2 118.91 83.57 118.91C88.93 118.91 94.06 121.08 97.81 124.91C101.56 128.74 103.61 133.93 103.49 139.29L103.49 139.27Z" />
		<path id="Layer" class="shp2" d="M184.17 188.54C180.88 199.04 152.33 223.54 152.33 223.54C152.33 223.54 142.85 187.09 146.1 176.54C147.85 171.71 151.39 167.74 155.99 165.46C160.6 163.18 165.9 162.76 170.8 164.3C175.7 165.84 179.82 169.21 182.3 173.7C184.78 178.2 185.42 183.49 184.1 188.45L184.17 188.54Z" />
		<path id="Layer" class="shp2" d="M256.01 247.09C254.55 258 230.55 286.97 230.55 286.97C230.55 286.97 215.05 252.69 216.55 241.78C217.33 236.61 220.11 231.94 224.29 228.8C228.48 225.66 233.73 224.29 238.91 224.99C244.1 225.68 248.8 228.39 252.01 232.53C255.22 236.66 256.67 241.89 256.05 247.09L256.01 247.09Z" />
		<path id="Layer" class="shp3" d="M6.04 112.91C13.94 120.54 50.72 128.54 50.72 128.54C50.72 128.54 41.72 92.02 33.8 84.35C29.99 80.74 24.92 78.79 19.68 78.9C14.43 79.01 9.45 81.18 5.8 84.94C2.14 88.7 0.12 93.75 0.17 99C0.21 104.24 2.32 109.25 6.04 112.95L6.04 112.91Z" />
		<path id="Layer" class="shp3" d="M26.85 179C37.64 181.14 72.85 167.81 72.85 167.81C72.85 167.81 45.4 142.05 34.6 139.91C29.47 139.01 24.18 140.15 19.88 143.09C15.58 146.04 12.61 150.55 11.59 155.66C10.58 160.77 11.61 166.08 14.46 170.44C17.31 174.81 21.76 177.88 26.85 179Z" />
		<path id="Layer" class="shp3" d="M102.6 250.54C113 246.94 136.6 217.67 136.6 217.67C136.6 217.67 99.92 209.28 89.53 212.88C84.38 214.48 80.1 218.1 77.66 222.91C75.23 227.72 74.84 233.32 76.6 238.42C78.36 243.51 82.11 247.68 87 249.97C91.89 252.25 97.49 252.46 102.53 250.54L102.6 250.54Z" />
		<path id="Layer" class="shp3" d="M172.1 291.73C182.96 289.93 211.2 265.08 211.2 265.08C211.2 265.08 176.47 250.61 165.61 252.4C160.39 253.26 155.74 256.16 152.66 260.45C149.58 264.75 148.33 270.09 149.19 275.31C150.05 280.53 152.95 285.18 157.24 288.26C161.54 291.34 166.88 292.59 172.1 291.73L172.1 291.73Z" />
		<path id="Layer" class="shp3" d="M103.49 139.27C103.49 150.27 83.59 182.2 83.59 182.2C83.59 182.2 63.65 150.29 63.64 139.29C63.52 133.93 65.57 128.74 69.32 124.91C73.07 121.08 78.2 118.91 83.57 118.91C88.93 118.91 94.06 121.08 97.81 124.91C101.56 128.74 103.61 133.93 103.49 139.29L103.49 139.27Z" />
		<path id="Layer" class="shp3" d="M184.17 188.54C180.88 199.04 152.33 223.54 152.33 223.54C152.33 223.54 142.85 187.09 146.1 176.54C147.85 171.71 151.39 167.74 155.99 165.46C160.6 163.18 165.9 162.76 170.8 164.3C175.7 165.84 179.82 169.21 182.3 173.7C184.78 178.2 185.42 183.49 184.1 188.45L184.17 188.54Z" />
		<path id="Layer" class="shp3" d="M256.01 247.09C254.55 258 230.55 286.97 230.55 286.97C230.55 286.97 215.05 252.69 216.55 241.78C217.33 236.61 220.11 231.94 224.29 228.8C228.48 225.66 233.73 224.29 238.91 224.99C244.1 225.68 248.8 228.39 252.01 232.53C255.22 236.66 256.67 241.89 256.05 247.09L256.01 247.09Z" />
		<path id="Layer" class="shp1" d="M255.34 323.24C255.34 323.24 246.34 230.06 192.46 180.5C169.87 159.7 154.17 132.5 148.56 102.26C147.9 98.68 147.33 95.08 146.83 91.48C146.34 87.87 145.93 84.25 145.6 80.62C145.28 77 145.03 73.37 144.87 69.73C144.71 66.09 144.63 62.45 144.64 58.81" />
		<path id="Layer" class="shp2" d="M110.89 27.38C115.01 37.59 145.42 59.74 145.42 59.74C145.42 59.74 151.97 22.69 147.86 12.48C145.87 7.58 142.03 3.66 137.17 1.59C132.3 -0.48 126.82 -0.53 121.92 1.44C117.01 3.42 113.09 7.26 111.02 12.12C108.95 16.99 108.9 22.47 110.87 27.37L110.89 27.38Z" />
		<path id="Layer" class="shp2" d="M103.1 96.23C112.1 102.56 149.67 104.63 149.67 104.63C149.67 104.63 135.1 69.97 126.1 63.64C121.77 60.61 116.42 59.41 111.21 60.3C106.01 61.2 101.37 64.13 98.32 68.45C95.28 72.77 94.07 78.12 94.97 83.32C95.87 88.53 98.8 93.16 103.11 96.21L103.1 96.23Z" />
		<path id="Layer" class="shp2" d="M143.41 192.31C154.41 193.24 187.85 176.05 187.85 176.05C187.85 176.05 157.72 153.52 146.75 152.6C141.42 152.03 136.08 153.64 131.95 157.05C127.81 160.47 125.23 165.4 124.78 170.75C124.33 176.09 126.05 181.39 129.56 185.45C133.06 189.51 138.06 191.98 143.41 192.31L143.41 192.31Z" />
		<path id="Layer" class="shp2" d="M190.25 258.15C200.91 260.91 236.8 249.63 236.8 249.63C236.8 249.63 210.91 222.33 200.26 219.57C195.18 218.34 189.81 219.15 185.32 221.84C180.84 224.53 177.59 228.88 176.27 233.94C174.96 239 175.69 244.38 178.31 248.91C180.93 253.44 185.22 256.76 190.26 258.15L190.25 258.15Z" />
		<path id="Layer" class="shp2" d="M189.3 90.97C184.85 101.03 153.71 122.14 153.71 122.14C153.71 122.14 148.41 84.9 152.86 74.83C154.94 69.91 158.91 66.03 163.88 64.06C168.85 62.1 174.4 62.21 179.29 64.37C184.17 66.54 187.98 70.57 189.87 75.57C191.75 80.57 191.55 86.12 189.3 90.97L189.3 90.97Z" />
		<path id="Layer" class="shp2" d="M243.1 168.65C235.84 176.92 199.81 187.75 199.81 187.75C199.81 187.75 205.89 150.63 213.16 142.36C216.65 138.39 221.57 135.97 226.84 135.63C232.11 135.28 237.3 137.05 241.27 140.54C245.24 144.02 247.67 148.94 248.01 154.21C248.35 159.49 246.58 164.68 243.1 168.65L243.1 168.65Z" />
		<path id="Layer" class="shp2" d="M285.1 251.34C279.34 260.72 245.66 277.48 245.66 277.48C245.66 277.48 245.38 239.86 251.14 230.48C253.92 225.98 258.36 222.76 263.5 221.53C268.64 220.3 274.06 221.16 278.56 223.92C283.07 226.69 286.29 231.13 287.52 236.27C288.75 241.41 287.89 246.83 285.13 251.33L285.1 251.34Z" />
	</g>
	<path id="Layer" class="shp0" d="M408.16 851.7C346.48 851.7 296.63 845.21 296.63 837.18C296.63 829.15 346.48 822.66 408.16 822.66C469.84 822.66 519.69 829.15 519.69 837.18C519.69 845.21 469.84 851.7 408.16 851.7Z" />
	<g id="5cfdbbb0-8197-4f02-a5fd-2740d54b5dec">
		<path id="Layer" class="shp0" d="M182.88 841.86C164.14 841.86 149 839.27 149 836.06C149 832.85 164.14 830.26 182.88 830.26C201.62 830.26 216.76 832.85 216.76 836.06C216.76 839.27 201.62 841.86 182.88 841.86Z" />
		<path id="Layer" class="shp2" d="M190.24 771.48C190.24 771.48 195.73 778.67 187.7 789.48C179.67 800.29 173.05 809.48 175.7 816.25C175.7 816.25 187.81 796.1 197.7 795.82C207.59 795.54 201.1 783.6 190.24 771.48Z" />
		<path id="Layer" class="shp4" d="M190.24 771.48C190.36 771.65 190.47 771.83 190.58 772.01C190.69 772.2 190.79 772.38 190.88 772.57C190.97 772.76 191.06 772.95 191.14 773.15C191.22 773.34 191.29 773.54 191.36 773.74C200.98 785.04 206.11 795.59 196.86 795.85C188.25 796.1 177.91 811.5 175.44 815.39C175.46 815.47 175.48 815.54 175.5 815.62C175.53 815.69 175.55 815.76 175.57 815.84C175.6 815.91 175.62 815.99 175.65 816.06C175.68 816.13 175.7 816.21 175.73 816.28C175.76 816.35 187.84 796.13 197.73 795.85C207.62 795.57 201.1 783.6 190.24 771.48Z" />
		<path id="Layer" class="shp5" d="M200.45 780.64C200.45 783.17 200.17 785.22 199.82 785.22C199.47 785.22 199.18 783.22 199.18 780.64C199.18 778.06 199.54 779.3 199.89 779.3C200.24 779.3 200.45 778.11 200.45 780.64Z" />
		<path id="Layer" class="shp5" d="M203.96 783.66C201.74 784.87 199.8 785.6 199.63 785.29C199.46 784.98 201.13 783.75 203.35 782.54C205.57 781.33 204.69 782.21 204.86 782.54C205.03 782.87 206.18 782.45 203.96 783.66Z" />
		<path id="Layer" class="shp2" d="M161.22 771.48C161.22 771.48 155.73 778.67 163.76 789.48C171.79 800.29 178.41 809.48 175.76 816.25C175.76 816.25 163.65 796.1 153.76 795.82C143.87 795.54 150.38 783.6 161.22 771.48Z" />
		<path id="Layer" class="shp4" d="M161.22 771.48C161.1 771.65 160.99 771.83 160.88 772.01C160.77 772.2 160.67 772.38 160.58 772.57C160.49 772.76 160.4 772.95 160.32 773.15C160.24 773.34 160.17 773.54 160.1 773.74C150.48 785.04 145.35 795.59 154.6 795.85C163.22 796.1 173.55 811.5 176.02 815.39C176 815.47 175.98 815.54 175.96 815.62C175.94 815.69 175.91 815.77 175.89 815.84C175.87 815.91 175.84 815.99 175.81 816.06C175.79 816.13 175.76 816.21 175.73 816.28C175.7 816.35 163.62 796.13 153.73 795.85C143.84 795.57 150.38 783.6 161.22 771.48Z" />
		<path id="Layer" class="shp5" d="M151.01 780.64C151.01 783.17 151.29 785.22 151.64 785.22C151.99 785.22 152.28 783.22 152.28 780.64C152.28 778.06 151.92 779.3 151.57 779.3C151.22 779.3 151.01 778.11 151.01 780.64Z" />
		<path id="Layer" class="shp5" d="M147.51 783.66C149.73 784.87 151.66 785.6 151.83 785.29C152 784.98 150.33 783.75 148.11 782.54C145.89 781.33 146.77 782.21 146.6 782.54C146.43 782.87 145.29 782.45 147.51 783.66Z" />
		<path id="Layer" class="shp2" d="M665.7 814.75C665.7 814.75 623.42 812.2 628.41 841.83C628.41 841.83 627.41 847.06 632.16 849.44C632.16 849.44 632.24 847.25 636.5 847.99C636.88 848.05 637.26 848.11 637.64 848.15C638.02 848.19 638.41 848.22 638.79 848.24C639.17 848.26 639.56 848.26 639.94 848.26C640.32 848.25 640.71 848.24 641.09 848.21C641.6 848.18 642.12 848.1 642.62 847.98C643.12 847.87 643.61 847.71 644.09 847.51C644.57 847.31 645.03 847.08 645.47 846.81C645.91 846.54 646.32 846.23 646.71 845.89L646.71 845.89C646.71 845.89 658.59 840.99 663.21 821.56C663.21 821.56 666.63 817.32 666.5 816.23L659.36 819.23C659.36 819.23 661.8 824.38 659.88 828.66C659.88 828.66 659.65 819.42 658.28 819.66C658 819.66 654.57 821.44 654.57 821.44C654.57 821.44 658.77 830.44 655.57 836.92C655.57 836.92 656.77 825.92 653.23 822.09L648.23 825.02C648.23 825.02 653.13 834.28 649.81 841.84C649.81 841.84 650.66 830.25 647.18 825.73L642.63 829.28C642.63 829.28 647.23 838.41 644.42 844.68C644.42 844.68 644.06 831.19 641.64 830.17C641.64 830.17 637.64 833.68 637.05 835.17C637.05 835.17 640.2 841.79 638.25 845.29C638.25 845.29 637.05 836.29 636.06 836.29C636.06 836.29 632.06 842.29 631.68 846.29C631.68 846.29 631.86 840.22 635.1 835.68C634.53 835.79 633.97 835.94 633.43 836.13C632.88 836.32 632.35 836.54 631.83 836.81C631.32 837.08 630.83 837.38 630.36 837.72C629.89 838.06 629.45 838.43 629.03 838.83C628.61 839.23 629.65 834.62 636.03 834.25C636.03 834.25 639.31 829.73 640.19 829.46C640.19 829.46 633.79 828.92 629.91 830.64C629.91 830.64 633.32 826.64 641.36 828.47L645.85 824.81C645.85 824.81 637.43 823.65 633.85 824.93C633.85 824.93 637.97 821.41 647.06 823.93L651.96 821.01C651.96 821.01 644.77 819.46 640.49 820.01C640.49 820.01 645.01 817.57 653.39 820.21L656.89 818.64C656.89 818.64 651.62 817.64 650.08 817.45C648.54 817.26 648.46 816.86 648.46 816.86C649.29 816.72 650.13 816.64 650.97 816.62C651.81 816.6 652.65 816.63 653.48 816.72C654.32 816.82 655.14 816.97 655.96 817.17C656.77 817.38 657.57 817.64 658.35 817.96C659.13 818.28 665.83 815.22 665.7 814.75Z" />
		<path id="Layer" class="shp0" d="M636.58 857.08C620.03 857.08 606.66 854.82 606.66 852.02C606.66 849.22 620.03 846.96 636.58 846.96C653.13 846.96 666.5 849.22 666.5 852.02C666.5 854.82 653.13 857.08 636.58 857.08Z" />
		<path id="Layer" class="shp2" d="M591.63 816.33C591.63 816.33 567.79 814.89 570.63 831.6C570.56 832.02 570.55 832.45 570.62 832.87C570.68 833.3 570.81 833.71 571 834.09C571.18 834.47 571.43 834.82 571.73 835.13C572.03 835.43 572.37 835.69 572.75 835.89C573.13 836.09 572.75 834.65 575.2 835.07C575.41 835.1 575.63 835.13 575.84 835.16C576.06 835.18 576.27 835.2 576.49 835.21C576.7 835.22 576.92 835.22 577.13 835.22C577.35 835.22 577.56 835.21 577.78 835.2C578.07 835.18 578.36 835.13 578.64 835.07C578.92 835 579.2 834.91 579.47 834.8C579.74 834.69 580 834.56 580.25 834.4C580.49 834.25 580.73 834.08 580.95 833.89L580.95 833.89C580.95 833.89 587.65 831.12 590.26 820.17C590.26 820.17 592.18 817.78 592.11 817.17L588.11 818.88C588.11 818.88 589.48 821.79 588.4 824.2C588.4 824.2 588.27 818.99 587.5 819.11C587.34 819.11 585.41 820.11 585.41 820.11C585.41 820.11 587.77 825.11 585.99 828.84C585.99 828.84 586.66 822.61 584.67 820.47L581.84 822.13C581.84 822.13 584.6 827.35 582.73 831.61C582.73 831.61 583.21 825.07 581.24 822.53L578.68 824.53C578.68 824.53 581.27 829.68 579.68 833.21C579.68 833.21 579.47 825.6 578.11 825.03C577.87 825.24 577.63 825.45 577.4 825.67C577.17 825.89 576.95 826.11 576.73 826.35C576.51 826.58 576.3 826.82 576.1 827.06C575.9 827.31 575.71 827.56 575.52 827.82C575.33 828.08 577.3 831.56 576.2 833.53C576.2 833.53 575.52 828.46 574.97 828.44C574.97 828.44 572.73 831.8 572.5 834.1C572.53 833.57 572.59 833.04 572.68 832.52C572.77 832 572.9 831.48 573.06 830.97C573.23 830.47 573.42 829.97 573.65 829.49C573.87 829.01 574.13 828.55 574.42 828.1C574.1 828.16 573.78 828.24 573.48 828.35C573.17 828.46 572.87 828.59 572.58 828.73C572.29 828.88 572.01 829.05 571.75 829.24C571.48 829.43 571.23 829.64 571 829.87C570.77 830.1 571.35 827.49 575 827.29C575 827.29 576.84 824.74 577.34 824.59C577.34 824.59 573.73 824.28 571.54 825.25C571.54 825.25 573.47 823.01 578 824.03L580.53 821.96C580.53 821.96 575.78 821.31 573.77 822.03C573.77 822.03 576.09 820.03 581.22 821.49L583.97 819.85C583.44 819.73 582.91 819.63 582.37 819.55C581.84 819.47 581.3 819.4 580.76 819.36C580.22 819.31 579.68 819.28 579.14 819.27C578.59 819.26 578.05 819.27 577.51 819.29C576.97 819.31 580.06 817.92 584.78 819.4L586.78 818.52C586.78 818.52 583.78 817.93 582.95 817.84C582.12 817.75 582.03 817.51 582.03 817.51C582.5 817.43 582.97 817.39 583.44 817.37C583.92 817.36 584.39 817.38 584.86 817.43C585.33 817.49 585.8 817.57 586.26 817.69C586.72 817.8 587.17 817.95 587.61 818.13C588.05 818.31 591.7 816.6 591.63 816.33Z" />
		<path id="Layer" class="shp0" d="M575.21 840.2C565.88 840.2 558.34 838.93 558.34 837.35C558.34 835.77 565.88 834.5 575.21 834.5C584.54 834.5 592.08 835.77 592.08 837.35C592.08 838.93 584.54 840.2 575.21 840.2Z" />
		<path id="Layer" class="shp2" d="M637 780.92C637 780.92 608.23 779.18 611.62 799.35C611.53 799.86 611.53 800.38 611.6 800.89C611.68 801.4 611.83 801.89 612.06 802.36C612.29 802.82 612.59 803.24 612.95 803.61C613.31 803.98 613.72 804.29 614.18 804.53C614.64 804.77 614.18 803.04 617.13 803.53C617.39 803.57 617.65 803.61 617.91 803.63C618.17 803.66 618.43 803.68 618.69 803.69C618.95 803.7 619.21 803.71 619.47 803.71C619.73 803.71 619.99 803.7 620.25 803.68C620.6 803.65 620.95 803.6 621.29 803.52C621.63 803.44 621.97 803.33 622.29 803.2C622.62 803.06 622.93 802.91 623.23 802.72C623.53 802.54 623.81 802.33 624.08 802.1L624.08 802.1C624.08 802.1 632.17 798.76 635.31 785.53C635.31 785.53 637.64 782.65 637.55 781.91L632.69 783.98C632.69 783.98 634.35 787.49 633.05 790.4C633.05 790.4 632.89 784.11 631.95 784.26C631.77 784.26 629.43 785.47 629.43 785.47C629.43 785.47 632.29 791.58 630.13 796.01C630.13 796.01 630.95 788.49 628.54 785.91L625.12 787.91C625.12 787.91 628.46 794.21 626.2 799.36C626.2 799.36 626.78 791.47 624.4 788.36L621.3 790.77C621.3 790.77 624.44 796.98 622.53 801.25C622.53 801.25 622.28 792.07 620.63 791.37C620.63 791.37 617.92 793.76 617.51 794.74C617.51 794.74 619.66 799.25 618.32 801.63C618.32 801.63 617.51 795.52 616.84 795.49C616.84 795.49 614.14 799.49 613.84 802.32C613.87 801.68 613.95 801.05 614.06 800.42C614.18 799.79 614.33 799.17 614.53 798.56C614.72 797.95 614.96 797.35 615.23 796.78C615.5 796.2 615.81 795.64 616.16 795.1C615.77 795.17 615.39 795.27 615.02 795.4C614.65 795.53 614.29 795.69 613.94 795.87C613.59 796.05 613.25 796.26 612.93 796.48C612.62 796.71 612.31 796.97 612.03 797.24C611.75 797.51 612.45 794.37 616.83 794.12C616.83 794.12 619.06 791.05 619.66 790.86C619.66 790.86 615.3 790.5 612.66 791.67C612.66 791.67 614.98 788.96 620.46 790.19L623.52 787.7C623.52 787.7 617.78 786.91 615.35 787.78C615.35 787.78 618.15 785.39 624.35 787.13L627.68 785.13C627.68 785.13 622.79 784.13 619.88 784.46C619.88 784.46 622.95 782.8 628.66 784.59L631.04 783.53C631.04 783.53 627.45 782.82 626.4 782.71C625.35 782.6 625.3 782.31 625.3 782.31C625.86 782.22 626.43 782.16 627.01 782.15C627.58 782.13 628.15 782.15 628.72 782.22C629.29 782.28 629.85 782.38 630.4 782.52C630.96 782.67 631.5 782.84 632.03 783.06C632.56 783.28 637.1 781.24 637 780.92Z" />
		<path id="Layer" class="shp0" d="M617.19 809.73C605.93 809.73 596.82 808.19 596.82 806.29C596.82 804.39 605.93 802.85 617.19 802.85C628.45 802.85 637.56 804.39 637.56 806.29C637.56 808.19 628.45 809.73 617.19 809.73Z" />
	</g>
	<g id="1cf578eb-5ffb-4cd7-95b8-45aaaddab7e0">
		<path id="Layer" class="shp6" d="M1088.1 584.67L1088.1 95.54L136.75 95.54L136.75 556.61C148.9 566.75 163.51 575.28 178.75 582.29C186.26 585.75 193.92 588.91 201.75 591.78L1076.75 591.78L1088.1 584.67Z" />
		<path id="Layer" class="shp7" d="M1086.26 584.87L1086.26 109.54L138.83 109.54L138.83 557.64C150.93 567.5 165.48 575.79 180.63 582.64C188.11 585.97 195.75 589.05 203.55 591.86L1074.93 591.86L1086.26 584.87Z" />
		<path id="Layer" class="shp8" d="M138.84 96.93L1086.26 96.93L1086.26 122.07L138.84 122.07L138.84 96.93Z" />
	</g>
	<g id="6703b009-63cb-4af0-a0d7-9948e224c180">
		<path id="Layer" class="shp7" d="M157.76 116C154.17 116 151.26 113.09 151.26 109.5C151.26 105.91 154.17 103 157.76 103C161.35 103 164.26 105.91 164.26 109.5C164.26 113.09 161.35 116 157.76 116Z" />
		<path id="Layer" class="shp7" d="M175.26 116C171.67 116 168.76 113.09 168.76 109.5C168.76 105.91 171.67 103 175.26 103C178.85 103 181.76 105.91 181.76 109.5C181.76 113.09 178.85 116 175.26 116Z" />
		<path id="Layer" class="shp7" d="M192.76 116C189.17 116 186.26 113.09 186.26 109.5C186.26 105.91 189.17 103 192.76 103C196.35 103 199.26 105.91 199.26 109.5C199.26 113.09 196.35 116 192.76 116Z" />
	</g>
	<g id="8c4e1fb4-b9ff-4530-b767-610e84618ea6">
		<path id="Layer" class="shp2" d="M380.95 177.32L537.45 177.32L537.45 275.66L380.95 275.66L380.95 177.32Z" />
		<path id="Layer" class="shp9" d="M164.26 177.32L320.76 177.32L320.76 275.66L164.26 275.66L164.26 177.32Z" />
		<path id="Layer" class="shp9" d="M597.64 177.32L754.14 177.32L754.14 275.66L597.64 275.66L597.64 177.32Z" />
		<path id="Layer" class="shp9" d="M164.26 317.91L320.76 317.91L320.76 416.25L164.26 416.25L164.26 317.91Z" />
		<path id="Layer" class="shp9" d="M380.95 317.91L537.45 317.91L537.45 416.25L380.95 416.25L380.95 317.91Z" />
		<path id="Layer" class="shp9" d="M597.64 317.91L754.14 317.91L754.14 416.25L597.64 416.25L597.64 317.91Z" />
		<path id="Layer" class="shp9" d="M164.26 458.49L320.76 458.49L320.76 556.83L164.26 556.83L164.26 458.49Z" />
		<path id="Layer" class="shp9" d="M380.95 458.49L537.45 458.49L537.45 556.83L380.95 556.83L380.95 458.49Z" />
		<path id="Layer" class="shp9" d="M597.64 458.49L754.14 458.49L754.14 556.83L597.64 556.83L597.64 458.49Z" />
	</g>
	<g id="2796dd85-6618-42ad-b8a0-d6b4cc80ab2d">
		<path id="Layer" fill-rule="evenodd" class="shp10" d="M521.63 455.87C521.44 455.89 521.24 455.92 521.05 455.95C520.86 455.98 520.67 456.01 520.48 456.05C520.29 456.09 520.1 456.13 519.91 456.18C519.72 456.23 519.54 456.28 519.35 456.34C518.72 456.54 518.09 456.75 517.47 456.96C516.84 457.18 516.22 457.4 515.6 457.63C514.98 457.86 514.36 458.1 513.75 458.35C513.14 458.6 512.53 458.86 511.92 459.12L511.7 459.21C508.33 460.64 504.57 462.36 501.02 464.03L499.96 464.53C497.16 465.87 494.54 467.15 492.4 468.21L492.4 468.29C492.52 468.81 492.64 469.35 492.76 469.9C497.3 491.1 501.76 530.93 494.76 545.68C485.25 565.73 481.35 589.54 481.35 589.54L477.94 609.62C477.94 609.62 479.68 618.39 477.94 621.73C476.2 625.07 472.74 630.5 472.74 630.5C472.74 630.5 473.79 638.75 473.89 645.31C473.95 649.06 473.69 652.3 472.74 653.06C470.15 655.14 472.74 667.67 472.74 667.67L465.39 703.56L464.1 709.87L451.86 764.11C451.58 764.34 451.29 764.55 450.99 764.76C450.69 764.96 450.38 765.16 450.07 765.34C449.76 765.53 449.44 765.7 449.12 765.87C448.79 766.03 448.46 766.18 448.13 766.32L447.97 766.39C447.79 766.46 447.61 766.53 447.42 766.6C447.24 766.67 447.05 766.73 446.87 766.79C446.68 766.85 446.49 766.91 446.31 766.97C446.12 767.02 445.93 767.07 445.74 767.12C445.74 767.5 445.74 768 445.74 768.39C445.6 773.49 445.26 779.31 444.6 782.08C444.01 784.6 443.96 789.25 444.08 793.54C444.08 793.77 444.08 793.99 444.08 794.22C444.47 795.27 444.85 796.37 445.23 797.53C445.23 797.53 446.2 806.4 450.58 809.53C454.96 812.66 450.1 826.44 448.15 827.38C448.1 827.4 448.06 827.42 448.01 827.43C447.96 827.45 447.91 827.46 447.86 827.48C447.82 827.49 447.77 827.5 447.72 827.51C447.67 827.52 447.62 827.53 447.57 827.54C447.29 827.58 446.96 827.65 446.57 827.65L446.47 827.65C442.79 827.94 434.34 827.72 429.1 827.54L428.92 827.54L428.92 834.13L425.6 834.13L425.18 828.69L424.87 824.78C424.84 824.68 424.81 824.59 424.79 824.49C424.76 824.39 424.74 824.3 424.73 824.2C424.71 824.1 424.7 824 424.69 823.9C424.68 823.8 424.68 823.7 424.68 823.6C424.68 823.12 424.68 822.64 424.68 822.12L423.68 809.23C423.16 806.31 422.38 803.96 421.23 803.12C417.17 800.14 413.95 789.89 421.23 776.96C421.51 776.78 421.79 776.61 422.09 776.45C422.38 776.3 422.68 776.16 422.99 776.03C423.3 775.91 423.61 775.8 423.93 775.71C424.25 775.62 424.57 775.55 424.9 775.49C424.96 775.28 425.01 775.06 425.07 774.83C425.79 771.79 426.45 767.81 426.94 764.39L427.09 763.32C427.09 763.24 427.09 763.24 427.09 763.24C426.11 762.66 425.38 762.18 424.99 761.9L424.65 761.66L428.08 726.16C428.08 726.16 428.44 721.84 428.94 715.42C430.18 699.16 432.27 669.45 431.46 662.72C431.46 662.71 431.46 662.7 431.46 662.69C431.46 662.68 431.46 662.67 431.46 662.66C431.46 662.66 431.46 662.65 431.46 662.64C431.46 662.63 431.46 662.62 431.46 662.61C431.46 662.51 431.45 662.4 431.43 662.3C431.42 662.19 431.39 662.09 431.37 661.99C431.34 661.89 431.3 661.79 431.27 661.69C431.23 661.6 431.18 661.5 431.13 661.41C431.06 661.33 431 661.24 430.94 661.15C430.88 661.06 430.83 660.97 430.78 660.88C430.74 660.78 430.69 660.68 430.66 660.58C430.62 660.48 430.59 660.38 430.56 660.28C429.68 657.09 431.82 651.45 432 650.99C432.18 650.53 432.34 650.07 432.49 649.61C432.64 649.14 432.78 648.67 432.91 648.2C433.04 647.73 433.15 647.25 433.25 646.77C433.36 646.29 433.44 645.81 433.52 645.33C433.54 645.21 433.55 645.09 433.57 644.97C433.58 644.85 433.59 644.73 433.6 644.61C433.61 644.49 433.62 644.37 433.63 644.25C433.63 644.13 433.64 644.01 433.64 643.89L433.64 643.79C433.66 643.51 433.67 643.22 433.65 642.94C433.63 642.66 433.58 642.38 433.52 642.1C433.45 641.83 433.36 641.56 433.26 641.3C433.15 641.03 433.02 640.78 432.87 640.54C432.76 640.39 432.66 640.22 432.58 640.06C432.49 639.89 432.41 639.72 432.34 639.54C432.28 639.36 432.22 639.18 432.18 639C432.13 638.81 432.1 638.63 432.08 638.44C431.67 635.46 433.3 631.63 433.3 631.38C433.3 631.13 433.3 630.83 433.3 630.46C433.18 625.89 432.76 605.23 435.06 600.03C435.16 599.77 435.24 599.5 435.32 599.23C435.4 598.96 435.47 598.68 435.53 598.41C435.59 598.13 435.65 597.86 435.69 597.58C435.73 597.3 435.77 597.02 435.79 596.74C435.79 596.68 435.79 596.61 435.79 596.54C437.04 585.69 435.04 558.01 435.04 558.01L434.04 547.48L433.97 546.74L433.43 541.17L433.37 540.51L433.31 539.9C433.31 539.9 432.94 542.4 432.31 546.27C430.39 558.06 426.32 582.51 424.71 587.51C424.44 588.42 424.14 589.32 423.81 590.21C423.49 591.1 423.14 591.98 422.77 592.86C422.4 593.73 422.01 594.59 421.59 595.44C421.17 596.29 420.73 597.13 420.27 597.96C420.27 597.96 422.52 610.49 420.27 613.83C418.02 617.17 419.93 620.93 419.93 620.93C419.93 620.93 422.09 631.37 415.6 635.55C411.38 638.26 412.64 640.1 414.05 641.04C414.17 641.12 414.29 641.2 414.41 641.27C414.54 641.34 414.67 641.41 414.79 641.48C414.92 641.54 415.05 641.6 415.19 641.66C415.32 641.71 415.45 641.76 415.59 641.81L415.45 642.09C415.21 642.61 414.64 643.81 413.92 645.34C412.38 648.64 410.17 653.43 409.1 656.01C407.37 660.15 409.1 666.01 409.1 666.01L405.61 699.86C405.61 699.86 402.84 712.83 402.99 722.37C402.99 722.81 402.99 723.25 402.99 723.67C403.42 733.27 399.09 755.41 399.09 755.41C399.09 755.41 395.1 755.41 389.67 755.26L387.9 755.2L387.84 755.42C387.75 755.74 387.66 756.07 387.58 756.42C387.58 756.44 387.58 756.45 387.58 756.47C387.58 756.49 387.58 756.5 387.58 756.52C387.58 756.54 387.58 756.55 387.58 756.57C387.58 756.59 387.58 756.6 387.58 756.62C387.35 757.67 387.16 758.73 386.99 759.79C386.82 760.86 386.69 761.92 386.58 762.99C386.47 764.06 386.4 765.14 386.35 766.21C386.3 767.29 386.29 768.36 386.3 769.44C386.3 769.66 386.3 769.82 386.3 770.07C386.3 770.32 386.3 770.58 386.3 770.8C386.3 771.02 386.3 771.23 386.3 771.44C386.52 771.7 386.72 771.96 386.92 772.23C387.11 772.51 387.29 772.79 387.46 773.08C387.62 773.37 387.78 773.67 387.92 773.97C388.06 774.27 388.19 774.58 388.3 774.9C390.67 781.27 389.26 789.66 388.97 790.27C388.68 790.88 388.41 791.49 388.15 792.11C387.89 792.73 387.64 793.35 387.41 793.98C387.18 794.61 386.96 795.25 386.76 795.89C386.56 796.53 386.37 797.17 386.2 797.82C385.85 799.08 385.55 800.35 385.29 801.63C385.03 802.91 384.81 804.2 384.63 805.49C384.46 806.78 384.32 808.08 384.24 809.39C384.15 810.69 384.1 811.99 384.1 813.3C384.11 814.44 384.07 815.57 383.97 816.71C383.88 817.84 383.73 818.97 383.53 820.08C383.33 821.2 383.08 822.31 382.78 823.41C382.48 824.5 382.13 825.59 381.73 826.65C381.7 827.37 381.63 828.07 381.63 828.76C381.59 829.64 381.53 830.5 381.53 831.32C381.35 835.92 381.23 839.36 381.23 840.11L381.23 840.26L375.78 840.26L375.78 840.04L375.94 834.1C371.75 833.93 360.2 833.16 355.59 829.47C355.56 829.45 355.54 829.43 355.51 829.4C355.48 829.38 355.46 829.36 355.43 829.34C355.4 829.31 355.38 829.29 355.35 829.26C355.33 829.24 355.3 829.22 355.28 829.19C355.16 829.09 355.04 828.98 354.93 828.87C354.82 828.75 354.72 828.63 354.62 828.51C354.52 828.39 354.42 828.26 354.33 828.13C354.25 828 354.17 827.86 354.09 827.72C350.85 821.49 360.2 798.29 360.42 797.49C360.64 796.69 360.86 795.9 361.11 795.12C361.35 794.33 361.6 793.54 361.87 792.77C362.14 791.99 362.42 791.21 362.72 790.44C363.01 789.67 363.32 788.91 363.64 788.15L363.7 787.36C364.31 780.24 365.56 767.06 366.75 765.36C367.57 764.16 368.14 759.41 368.5 755C368.54 754.58 368.6 754.17 368.6 753.76C364.88 753.23 361.95 752.54 360.69 751.62C358.15 749.77 360.21 739.89 362.95 730.35C365.76 720.55 369.29 711.11 369.29 711.11C369.29 711.11 373.02 649.45 372.36 645.3C372.36 645.28 372.36 645.27 372.35 645.25C372.35 645.23 372.35 645.22 372.34 645.2C372.34 645.19 372.33 645.17 372.33 645.16C372.32 645.14 372.32 645.12 372.31 645.11C371.42 643.4 372.31 630.92 375.31 628.4C378.31 625.88 375.31 620.88 375.31 620.88C375.31 620.88 374.44 610.85 375.31 608.35C376.18 605.85 375.18 597.49 375.18 597.49C375.18 597.49 372.28 577.03 371.85 565.33C371.79 563.46 371.67 561.23 371.53 558.79C371.5 558.22 371.43 557.65 371.43 557.06C369.8 558.06 367.59 558.28 364.59 557.48C364.36 557.42 364.13 557.35 363.91 557.28C363.68 557.21 363.45 557.14 363.23 557.06C363.01 556.99 362.78 556.91 362.56 556.82C362.34 556.74 362.12 556.65 361.9 556.56C348.19 550.94 345.44 540.02 346.28 530.19C346.4 529.02 346.55 527.84 346.75 526.68C346.94 525.52 347.17 524.36 347.45 523.21C347.72 522.06 348.03 520.92 348.38 519.79C348.73 518.67 349.12 517.55 349.54 516.45C349.68 516.07 349.83 515.71 349.97 515.36C349.5 515.19 349.03 515.01 348.57 514.81C348.11 514.61 347.66 514.4 347.21 514.18C346.76 513.96 346.32 513.73 345.88 513.48C345.45 513.23 345.02 512.97 344.6 512.7C344.6 512.7 344.73 502.43 345.09 489.43C345.47 476.25 346.09 460.31 347.09 449.66C347.26 448 347.43 446.4 347.61 445C348.07 441.42 348.6 438.95 349.19 438.12C349.2 438.1 349.21 438.09 349.23 438.07C349.24 438.05 349.26 438.04 349.27 438.02C349.28 438 349.3 437.99 349.31 437.97C349.33 437.96 349.34 437.94 349.36 437.93C349.54 437.76 349.72 437.58 349.87 437.38C350.03 437.19 350.17 436.98 350.29 436.76C350.42 436.54 350.52 436.31 350.61 436.08C350.7 435.85 350.77 435.61 350.82 435.36C350.92 434.78 350.99 434.2 351.03 433.61C351.07 433.02 351.08 432.43 351.05 431.85C351.03 431.26 350.98 430.67 350.89 430.09C350.81 429.51 350.69 428.93 350.55 428.36C350.49 428.1 350.44 427.83 350.37 427.57C350.31 427.31 350.25 427.05 350.18 426.79C350.11 426.53 350.04 426.27 349.96 426.01C349.89 425.75 349.81 425.5 349.73 425.24C349.51 424.55 349.36 424.14 349.36 424.14L349.88 417.38L350.25 412.63L352.33 385.63C352.32 385.57 352.32 385.5 352.31 385.44C352.31 385.37 352.31 385.31 352.32 385.24C352.32 385.18 352.33 385.11 352.34 385.05C352.36 384.99 352.37 384.92 352.39 384.86C352.59 384.22 352.77 383.57 352.95 382.93C353.12 382.28 353.29 381.63 353.44 380.98C353.6 380.32 353.74 379.67 353.87 379.01C354 378.35 354.12 377.69 354.23 377.03C354.7 374.4 355.12 371.77 355.47 369.12C355.83 366.48 356.13 363.83 356.37 361.17C356.62 358.51 356.81 355.85 356.93 353.18C357.06 350.52 357.14 347.85 357.15 345.18C357.15 344.43 357.17 343.67 357.22 342.92C357.27 342.17 357.36 341.42 357.47 340.67C357.57 339.92 357.71 339.18 357.88 338.45C358.04 337.71 358.24 336.98 358.46 336.26C361.91 325.13 371.37 319.31 376.61 315.94C377.1 315.67 377.6 315.41 378.1 315.17C378.61 314.92 379.12 314.7 379.64 314.49C380.16 314.28 380.68 314.08 381.21 313.9C381.74 313.73 382.28 313.56 382.82 313.42C383.09 312.68 383.32 311.94 383.53 311.18C383.74 310.43 383.91 309.67 384.06 308.9C384.21 308.13 384.33 307.36 384.42 306.58C384.5 305.8 384.56 305.02 384.59 304.24C384.58 303.63 384.55 303.03 384.49 302.42C383.84 295.6 380.28 289.22 380.03 282.37C380.03 282.16 380.03 281.95 380.03 281.74C380.03 281.53 380.03 281.33 380.03 281.12C380.03 280.66 380.03 280.2 380.03 279.75C380.03 279.63 380.03 279.52 380.03 279.41C380.05 279.04 380.11 278.67 380.11 278.3C381.53 262.68 398.77 250.3 399.05 234.3C398.99 233.35 398.99 232.38 398.99 231.43C398.96 231.1 398.95 230.77 398.96 230.44C398.96 230.11 398.99 229.79 399.03 229.46C399.07 229.13 399.12 228.81 399.2 228.49C399.27 228.17 399.36 227.85 399.47 227.54C399.63 227.17 399.83 226.82 400.04 226.48C400.26 226.14 400.5 225.82 400.76 225.51C401.02 225.21 401.3 224.92 401.6 224.66C401.9 224.39 402.22 224.15 402.56 223.93C403.18 223.47 403.83 223.07 404.48 222.68C405.67 221.98 406.89 221.32 408.13 220.7C409.37 220.08 410.64 219.5 411.92 218.97C413.2 218.44 414.49 217.95 415.81 217.51C417.12 217.07 418.45 216.67 419.79 216.32C420.34 216.18 420.89 216.04 421.45 215.91C422 215.78 422.56 215.66 423.12 215.54C423.67 215.42 424.23 215.32 424.79 215.22C425.35 215.12 425.92 215.02 426.48 214.94C430.73 213.47 436.42 215.03 440.23 217.94C445.35 221.85 448.96 227.55 454.6 230.71C457.04 232.08 459.76 232.91 462.27 234.16C464.05 235.05 465.72 236.15 467.23 237.44C468.75 238.73 470.1 240.2 471.26 241.82C472.42 243.44 473.38 245.19 474.12 247.04C474.86 248.89 475.37 250.82 475.64 252.79C475.67 253.07 475.72 253.35 475.72 253.62C475.82 254.62 475.82 255.62 475.82 256.62C475.93 262.06 474.57 267.53 474.48 272.98C474.48 273.2 474.49 273.42 474.49 273.63C474.5 273.85 474.51 274.07 474.53 274.29C474.54 274.51 474.56 274.72 474.58 274.94C474.6 275.16 474.62 275.37 474.65 275.59C475.75 284.25 481.54 291.96 483.65 300.25C483.92 300.25 484.19 300.25 484.46 300.25C484.73 300.26 485 300.27 485.27 300.29C485.54 300.31 485.81 300.33 486.08 300.36C486.34 300.39 486.61 300.42 486.88 300.46C487.07 300.49 487.25 300.51 487.44 300.55C487.63 300.58 487.81 300.61 488 300.65C488.18 300.69 488.37 300.74 488.55 300.78C488.74 300.83 488.92 300.88 489.1 300.93L486.68 264.55L486.39 260.34L486.39 259.57L486.72 259.36L486.53 259.05L486.43 258.89C483.3 253.89 478.99 247.02 475.79 242.02C472.02 236.14 474.09 228.19 475.86 223.6C475.98 223.28 476.1 222.97 476.23 222.65C476.36 222.34 476.5 222.03 476.64 221.72C476.78 221.41 476.92 221.1 477.07 220.8C477.22 220.49 477.37 220.19 -41.9 -21.46C-41.9 -21.46 -41.9 -21.46 477.53 219.89C477.59 219.39 477.65 218.88 477.72 218.38C477.79 217.88 477.86 217.38 477.95 216.88C478.03 216.38 478.12 215.88 478.22 215.38C478.32 214.88 478.42 214.38 478.53 213.89C478.68 213.05 478.87 212.23 479.1 211.41C479.32 210.59 479.57 209.77 479.86 208.97C480.15 208.18 480.47 207.39 480.82 206.61C481.17 205.84 481.56 205.08 481.97 204.34C481.98 204.33 481.98 204.32 481.99 204.31C482 204.31 482 204.3 482.01 204.29C482.02 204.28 482.02 204.27 482.03 204.26C482.03 204.25 482.04 204.24 482.04 204.23C482.04 204.23 481.93 204.4 482.04 204.23C482.15 204.06 482.26 203.9 482.38 203.74C482.5 203.57 482.63 203.42 482.75 203.26C482.88 203.11 483.02 202.96 483.16 202.82C483.3 202.67 483.44 202.53 483.59 202.4C483.65 202.35 483.71 202.29 483.77 202.25C483.84 202.2 483.9 202.16 483.97 202.12C484.04 202.08 484.11 202.04 484.19 202.01C484.26 201.98 484.33 201.95 484.41 201.93C485.66 201.56 486.65 203.19 487.41 205.61C488.72 209.82 489.33 216.24 489.53 218.82C489.61 219.53 489.33 219.83 489.61 219.95C489.89 220.07 490.17 220.2 490.44 220.33C490.72 220.46 490.99 220.6 491.26 220.74C491.53 220.88 491.79 221.03 492.06 221.18C492.32 221.33 492.58 221.49 492.84 221.65C507.44 230.68 498.44 247.93 498.44 247.93L500.29 255.72L500.61 257.04C504.27 257.88 508.16 260.16 511.67 265.04C511.67 265.04 511.23 274.21 511.67 276.73C512.11 279.25 508.67 281.74 511.67 284.25C514.67 286.76 511.67 295.11 511.67 295.11C511.67 295.11 515.1 300.96 517.26 302.63C519.42 304.3 521.59 318.09 517.26 321.01C512.93 323.93 504.71 330.64 504.71 333.54C504.71 336.44 494.33 343.54 494.33 343.54C494.33 343.54 490.84 355.64 486.1 364C481.36 372.36 509.47 423.74 509.47 423.74C509.47 423.74 527.64 455.48 521.63 455.87ZM373.96 492.92C373.68 494.64 373.43 496.25 373.23 497.73C373.73 496.36 374.34 494.96 375 493.59C375.11 493.35 375.23 493.12 375.35 492.88C375.55 492.48 375.75 492.08 375.96 491.69L374.16 491.69C374.1 492.09 374.03 492.54 373.96 492.92ZM369.72 518.76C369.92 519.37 370.11 519.99 370.3 520.62C370.38 519.95 370.47 519.25 370.56 518.53C370.6 518.17 370.69 517.81 370.69 517.43C370.69 517.42 370.69 517.4 370.69 517.39C370.69 517.37 370.69 517.36 370.69 517.34C370.69 517.32 370.69 517.31 370.69 517.29C370.69 517.28 370.69 517.26 370.69 517.25C370.75 516.79 370.81 516.32 370.86 515.85C370.86 515.74 370.86 515.63 370.86 515.52L370.73 515.52C370.09 515.75 369.46 515.96 368.84 516.15C368.94 516.51 369.04 516.83 369.15 517.15L369.3 517.62C369.3 517.63 369.3 517.64 369.3 517.65C369.3 517.67 369.3 517.68 369.3 517.69C369.3 517.7 369.3 517.71 369.3 517.73C369.3 517.74 369.3 517.75 369.3 517.76C369.41 518.09 369.52 518.43 369.72 518.76Z" />
		<path id="Layer" class="shp11" d="M499.1 263.46L488.3 267.28L484.38 260.78C481.38 255.78 477.22 248.94 474.15 243.97C468.73 235.23 475.82 221.91 475.82 221.91C475.82 221.91 477.1 208.54 481.66 204.42C486.22 200.3 487.49 221.91 487.49 221.91C505.8 230.23 495.99 249.8 495.99 249.8L497.77 257.56L499.1 263.46Z" />
		<path id="Layer" class="shp4" d="M499.1 263.46L488.3 267.28L484.38 260.78L484.38 260.21C484.38 260.21 490.57 255.96 497.79 257.56L499.1 263.46Z" />
		<path id="Layer" class="shp12" d="M481.66 307.26L487.07 302.68L484.36 261.46C484.36 261.46 498.36 251.88 508.72 266.87C508.72 266.87 508.3 276.03 508.72 278.53C509.14 281.03 505.81 283.53 508.72 286.02C511.63 288.51 508.72 296.85 508.72 296.85C508.72 296.85 512.01 302.68 514.09 304.34C516.17 306 518.26 319.75 514.09 322.66C509.92 325.57 502.1 332.24 502.1 335.15C502.1 338.06 492.1 345.15 492.1 345.15L483.32 333.54L481.66 307.26Z" />
		<path id="Layer" class="shp11" d="M364.66 557.48C344.48 548.92 348.96 528.01 352.76 517.48C352.95 516.95 353.15 516.42 353.35 515.89C353.56 515.36 353.78 514.84 354 514.32C354.22 513.8 354.45 513.28 354.69 512.77C354.93 512.25 355.18 511.75 355.43 511.24L366.75 504.37C366.75 504.37 369.06 510.26 371.53 518.16C377.26 536.54 383.85 565.63 364.66 557.48Z" />
		<path id="Layer" class="shp11" d="M392.4 748.27C392.06 748.93 391.74 749.61 391.44 750.3C391.15 750.98 390.87 751.68 390.62 752.38C390.37 753.08 390.14 753.8 389.94 754.52C389.74 755.23 389.56 755.96 389.4 756.69C389.15 757.87 388.94 759.05 388.76 760.24C388.58 761.43 388.43 762.62 388.32 763.82C388.22 765.01 388.14 766.21 388.11 767.41C388.07 768.62 388.07 769.82 388.1 771.02C388.18 774.35 388.46 776.53 388.46 776.53L365.98 791.99C365.98 791.99 366.11 790.18 366.33 787.52C366.91 780.44 368.12 767.3 369.26 765.6C370.05 764.42 370.6 759.68 370.95 755.28C371.3 750.88 371.44 747.02 371.44 747.02C371.44 747.02 398.49 736.88 392.4 748.27Z" />
		<path id="Layer" class="shp11" d="M445.49 759.36C445.49 759.36 445.49 763.66 445.33 768.66C445.17 773.66 444.87 779.56 444.24 782.31C443.66 784.83 443.62 789.46 443.73 793.73C443.88 798.73 444.24 803.23 444.24 803.23C444.24 803.23 421.29 781.53 423.63 779.81C424.26 779.35 424.88 777.5 425.45 775.04C426.15 772.04 426.78 768.04 427.25 764.64C427.81 760.59 428.16 757.33 428.16 757.33L445.49 759.36Z" />
		<path id="Layer" class="shp4" d="M392.4 748.27C392.06 748.93 391.74 749.61 391.44 750.3C391.15 750.98 390.87 751.68 390.62 752.38C390.37 753.08 390.14 753.8 389.94 754.52C389.74 755.23 389.56 755.96 389.4 756.69C387.86 756.65 386.32 756.59 384.79 756.51C383.25 756.43 381.72 756.33 380.18 756.22C378.65 756.1 377.12 755.96 375.59 755.81C374.05 755.65 372.53 755.47 371 755.28C371.34 750.98 371.49 747.02 371.49 747.02C371.49 747.02 398.49 736.88 392.4 748.27Z" />
		<path id="Layer" class="shp4" d="M445.49 759.36C445.49 759.36 445.49 763.66 445.33 768.66C438.17 770.49 430.81 766.83 427.25 764.66C427.81 760.61 428.16 757.35 428.16 757.35L445.49 759.36Z" />
		<path id="Layer" class="shp13" d="M492.48 546.66C483.32 566.66 479.57 590.38 479.57 590.38L476.24 610.38C476.24 610.38 477.91 619.12 476.24 622.45C474.57 625.78 471.24 631.2 471.24 631.2C471.24 631.2 473.74 651.6 471.24 653.68C468.74 655.76 471.24 668.25 471.24 668.25L462.91 710.25L451.25 764.37C440.01 773.54 425.05 761.88 425.05 761.88L428.35 726.49C428.35 726.49 433.35 664.49 431.27 661.95C429.19 659.41 432.1 651.54 432.1 651.54C432.1 651.54 435.02 644.04 432.94 641.13C430.86 638.22 433.35 631.97 433.35 631.97C433.35 631.97 432.52 606.57 435.02 600.74C437.52 594.91 435.02 558.85 435.02 558.85L434.02 547.62L433.44 541.4L433.39 540.79C433.39 540.79 433.01 543.28 432.39 547.14C430.55 558.89 426.63 583.24 425.08 588.25C424.82 589.15 424.53 590.05 424.22 590.93C423.91 591.82 423.58 592.7 423.22 593.57C422.86 594.44 422.48 595.3 422.08 596.15C421.68 596.99 421.26 597.83 420.81 598.66C420.36 599.49 422.97 611.15 420.81 614.48C418.65 617.81 420.48 621.56 420.48 621.56C420.48 621.56 422.56 631.97 416.31 636.13C410.06 640.29 416.31 642.38 416.31 642.38C416.31 642.38 411.73 652.38 410.07 656.53C408.41 660.68 410.07 666.53 410.07 666.53L406.74 700.25C406.74 700.25 403.82 714.4 404.24 723.98C404.66 733.56 400.49 755.62 400.49 755.62C400.49 755.62 368.43 755.62 363.49 751.87C358.55 748.12 371.74 711.54 371.74 711.54C371.74 711.54 375.49 647.42 374.65 645.76C373.81 644.1 374.65 631.6 377.57 629.11C380.49 626.62 377.57 621.61 377.57 621.61C377.57 621.61 376.74 611.61 377.57 609.12C378.4 606.63 377.44 598.29 377.44 598.29C377.44 598.29 374.65 577.89 374.24 566.23C373.83 554.57 371.74 528.35 371.74 528.35C371.74 528.35 373.92 512.13 374.25 504.41C374.37 501.57 375.64 498.02 377.25 494.68C377.7 493.74 378.17 492.8 378.65 491.88C379.14 490.95 379.64 490.04 380.15 489.13C380.67 488.22 381.2 487.32 381.75 486.43C382.3 485.55 382.87 484.67 383.45 483.8C384.03 482.93 482.1 454.64 486.24 457.54C487.34 458.31 488.94 463.54 490.52 471.11C494.92 492.26 499.22 531.96 492.48 546.66Z" />
		<path id="Layer" class="shp14" d="M431.7 292.19C415.81 292.19 402.97 279.35 402.97 263.46C402.97 247.57 415.81 234.73 431.7 234.73C447.59 234.73 460.43 247.57 460.43 263.46C460.43 279.35 447.59 292.19 431.7 292.19Z" />
		<path id="Layer" class="shp4" d="M490.52 471.13C487.21 472.83 484.99 474 484.99 474C484.99 474 438.36 496.07 425.1 494.82C414.84 493.82 388.65 494.39 377.24 494.67C377.69 493.73 378.16 492.79 378.64 491.87C379.13 490.94 379.63 490.03 380.14 489.12C380.66 488.21 381.19 487.31 381.74 486.42C382.29 485.54 382.86 484.66 383.44 483.79C384.02 482.92 482.1 454.64 486.24 457.54C487.34 458.33 488.94 463.54 490.52 471.13Z" />
		<path id="Layer" class="shp12" d="M411.71 309.34C411.71 309.34 385.1 313.54 378.82 317.66C372.54 321.78 360.1 329.74 360.1 346.81C360.1 363.88 357.19 381.37 355.52 386.36C353.85 391.35 381.75 431.74 381.75 431.74L371.75 492.95C371.75 492.95 411.75 491.7 425.07 492.95C438.39 494.2 485 472.13 485 472.13C485 472.13 512.48 457.56 518.31 457.13C524.14 456.7 506.65 425.07 506.65 425.07C506.65 425.07 479.58 373.87 484.16 365.54C488.74 357.21 492.1 345.14 492.1 345.14L487.1 302.68C487.1 302.68 479.61 300.18 473.36 304.76C467.11 309.34 445.88 306.84 445.88 306.84L411.71 309.34Z" />
		<path id="Layer" class="shp4" d="M366.54 383.45L356.1 386.36L353.21 425.54C353.21 425.54 356.96 435.95 353.21 439.28C349.46 442.61 348.63 513.81 348.63 513.81C348.63 513.81 360.71 522.55 374.86 515.89C374.86 515.89 372.78 507.98 379.03 479.25C385.28 450.52 385.27 435.95 385.27 435.95C385.27 435.95 385.27 400.14 388.19 394.31C391.11 388.48 388.19 373.91 388.19 373.91C388.19 373.91 382.36 366 382.77 363.09C383.18 360.18 366.54 383.45 366.54 383.45Z" />
		<path id="Layer" class="shp4" d="M371.53 518.19C370.01 518.7 368.45 519.07 366.87 519.3C365.28 519.53 363.68 519.62 362.08 519.56C360.48 519.5 358.89 519.3 357.33 518.96C355.77 518.61 354.24 518.13 352.76 517.51C352.95 516.98 353.15 516.45 353.35 515.92C353.56 515.39 353.78 514.87 354 514.35C354.22 513.83 354.45 513.31 354.69 512.8C354.93 512.28 355.18 511.78 355.43 511.27L366.75 504.4C366.75 504.4 369.1 510.29 371.53 518.19Z" />
		<path id="Layer" class="shp12" d="M365.91 383.45L355.5 386.36L352.59 425.54C352.59 425.54 356.34 435.95 352.59 439.28C348.84 442.61 348.01 513.81 348.01 513.81C348.01 513.81 360.1 522.54 374.24 515.85C374.24 515.85 372.16 507.94 378.4 479.21C384.64 450.48 384.65 435.91 384.65 435.91C384.65 435.91 384.65 400.1 387.56 394.27C390.47 388.44 387.56 373.87 387.56 373.87C387.56 373.87 381.73 365.96 382.15 363.05C382.57 360.14 365.91 383.45 365.91 383.45Z" />
		<path id="Layer" class="shp4" d="M472.5 389.69C472.5 389.69 467.09 436.32 451.26 445.07C451.26 445.07 486.65 435.08 472.5 389.69Z" />
		<path id="Layer" class="shp4" d="M392.98 393.86C392.98 393.86 412.54 403.43 407.98 410.09C403.42 416.75 392.98 393.86 392.98 393.86Z" />
		<path id="Layer" class="shp4" d="M392.98 413.01C392.98 413.01 405.47 425.92 402.98 430.5C400.49 435.08 392.98 413.01 392.98 413.01Z" />
		<path id="Layer" class="shp4" d="M493.73 306.01C493.73 306.01 498.63 314.33 499.1 319.75C499.57 325.17 493.73 306.01 493.73 306.01Z" />
		<path id="Layer" class="shp4" d="M493.73 294.77C493.73 294.77 496.19 292.68 502.47 294.77C508.75 296.86 493.73 294.77 493.73 294.77Z" />
		<path id="Layer" class="shp4" d="M469.69 538.12C467.13 538.48 464.54 538.68 461.95 538.69C459.36 538.71 456.77 538.55 454.2 538.22C451.63 537.9 449.09 537.39 446.59 536.72C444.08 536.06 441.63 535.22 439.24 534.22L433.99 547.66L433.41 541.44C434.27 536.22 435.94 530.63 439.24 529.22C439.24 529.22 450.8 538.43 469.69 538.12Z" />
		<path id="Layer" class="shp4" d="M384.28 555.61C384.28 555.61 409.89 560.92 417.07 559.98L384.28 555.61Z" />
		<path id="Layer" class="shp4" d="M386.94 562.32C386.94 562.32 397.87 561.85 403.33 564.04L386.94 562.32Z" />
		<path id="Layer" class="shp4" d="M388.19 566.85C389.44 567.11 390.69 567.36 391.94 567.57C393.2 567.79 394.46 567.98 395.72 568.15C396.98 568.31 398.25 568.45 399.52 568.57C400.79 568.69 402.06 568.78 403.33 568.85L388.19 566.85Z" />
		<path id="Layer" class="shp4" d="M387.56 624.15C388.03 623.84 409.42 618.84 412.08 622.43L387.56 624.15Z" />
		<path id="Layer" class="shp4" d="M387.56 630.71C387.56 630.71 406.14 628.52 406.61 630.71C407.08 632.9 387.56 630.71 387.56 630.71Z" />
		<path id="Layer" class="shp4" d="M387.56 636.64C387.56 636.64 407.39 632.54 409.73 633.54C412.07 634.54 387.56 636.64 387.56 636.64Z" />
		<path id="Layer" class="shp4" d="M388.5 776.54L366.02 792C366.02 792 366.15 790.19 366.37 787.53C371.37 775.23 377.88 768.74 377.88 768.74C382.95 767.42 386.15 768.64 388.14 771.03C388.22 774.35 388.5 776.54 388.5 776.54Z" />
		<path id="Layer" class="shp13" d="M390.69 790.43C389.9 792.24 389.2 794.08 388.61 795.96C388.01 797.84 387.52 799.75 387.12 801.68C386.73 803.61 386.44 805.56 386.25 807.53C386.06 809.49 385.98 811.46 386 813.43C386.03 815.04 385.95 816.66 385.77 818.26C385.58 819.86 385.28 821.45 384.88 823.01C384.48 824.57 383.97 826.11 383.36 827.6C382.76 829.09 382.05 830.54 381.24 831.94C381.12 832.14 381 832.33 380.88 832.53C380.75 832.72 380.62 832.91 380.49 833.1C380.36 833.29 380.23 833.47 380.09 833.66C379.95 833.84 379.81 834.02 379.66 834.2C379.51 834.38 364.04 834.07 358.57 829.54C358.42 829.42 358.27 829.29 358.13 829.15C357.99 829.02 357.86 828.87 357.74 828.72C357.61 828.57 357.5 828.41 357.39 828.25C357.29 828.08 357.19 827.91 357.1 827.74C353.97 821.5 363.19 797.61 363.19 797.61C368.03 779.19 377.86 769.35 377.86 769.35C395.37 764.82 390.69 790.43 390.69 790.43Z" />
		<path id="Layer" class="shp4" d="M381.24 831.89C381.12 832.09 381 832.28 380.88 832.48C380.75 832.67 380.62 832.86 380.49 833.05C380.36 833.24 380.23 833.42 380.09 833.61C379.95 833.79 379.81 833.97 379.66 834.15C379.51 834.33 364.04 834.02 358.57 829.49C361.26 820.59 369.84 793.66 373.86 798.24C377.64 802.54 380.27 823.23 381.24 831.89Z" />
		<path id="Layer" class="shp13" d="M379.1 799.91L378.01 840.25L383.25 840.25C383.25 840.25 384.1 804.86 386.44 799.91C388.78 794.96 379.1 799.91 379.1 799.91Z" />
		<path id="Layer" class="shp4" d="M444.24 803.23C444.24 803.23 421.29 781.53 423.63 779.81C424.26 779.35 424.88 777.5 425.45 775.04C429.86 774.27 437.45 776.11 443.73 793.73C443.88 798.73 444.24 803.23 444.24 803.23Z" />
		<path id="Layer" class="shp13" d="M447.67 827.43C447.63 827.45 447.58 827.47 447.54 827.48C447.49 827.5 447.45 827.51 447.4 827.53C447.35 827.54 447.31 827.55 447.26 827.56C447.21 827.57 447.17 827.58 447.12 827.59C444.42 828.06 434.47 827.79 428.9 827.59C428.39 827.57 427.9 827.46 427.43 827.25C426.97 827.05 426.55 826.76 426.2 826.39C425.85 826.03 425.57 825.6 425.38 825.14C425.19 824.67 425.09 824.17 425.09 823.66C425.09 822.16 425.09 820.33 424.97 818.38C424.71 812.22 423.97 804.89 421.76 803.24C417.85 800.24 414.76 790.06 421.76 777.17C421.76 777.17 435.18 766.92 444.86 797.73C444.86 797.73 445.8 806.52 450.01 809.64C454.22 812.76 449.55 826.54 447.67 827.43Z" />
		<path id="Layer" class="shp4" d="M447.1 827.59C444.4 828.06 434.45 827.79 428.88 827.59C428.37 827.57 427.88 827.46 427.41 827.25C426.95 827.05 426.53 826.76 426.18 826.39C425.83 826.03 425.55 825.6 425.36 825.14C425.17 824.67 425.07 824.17 425.07 823.66C425.07 822.16 425.07 820.33 424.95 818.38C426.64 810.92 429.07 803.24 432.2 801.49C432.22 801.48 441.69 800.41 447.1 827.59Z" />
		<path id="Layer" class="shp13" d="M423.46 800.58L425.98 834.15L429.18 834.15L429.18 797.72L423.46 800.58L423.46 800.58Z" />
		<path id="Layer" class="shp4" d="M431.28 217.68C429.02 217.85 426.78 218.15 424.55 218.58C422.33 219.02 420.14 219.58 417.98 220.27C415.83 220.97 413.71 221.78 411.65 222.73C409.59 223.67 407.59 224.73 405.66 225.91C403.66 227.12 401.66 228.59 400.83 230.76C400.11 232.64 400.41 234.76 400.44 236.76C400.71 253.98 381.51 267.01 382.11 284.22C382.35 291.05 385.78 297.41 386.41 304.22C387.46 315.58 380.74 326.03 374.3 335.44C375.94 335.54 377.59 335.48 379.21 335.27C380.84 335.06 382.45 334.69 384.01 334.17C385.57 333.66 387.07 332.99 388.51 332.19C389.94 331.39 391.29 330.45 392.55 329.39C394.24 335.02 395.57 340.76 396.53 346.56C397.49 352.37 398.08 358.22 398.29 364.1C398.51 369.98 398.35 375.87 397.82 381.72C397.28 387.58 396.37 393.4 395.1 399.14L404.31 399.14C404.54 399.12 404.76 399.12 404.99 399.12C405.22 399.13 405.45 399.15 405.67 399.17C405.9 399.2 406.12 399.24 406.34 399.29C406.56 399.34 406.78 399.4 407 399.47C407.2 399.57 407.4 399.67 407.59 399.79C407.78 399.9 407.97 400.03 408.14 400.16C408.32 400.29 408.49 400.43 408.66 400.59C408.82 400.74 408.98 400.89 409.13 401.06C417.74 409.63 423.51 422.3 420.22 434L439.82 426.65C444.51 424.89 449.27 423.1 453.35 420.2C457.43 417.3 460.85 413.09 461.71 408.15C462.24 405.15 462.07 401.57 464.54 399.83C464.84 399.67 465.15 399.52 465.47 399.38C465.78 399.24 466.1 399.1 466.42 398.99C466.74 398.87 467.07 398.76 467.4 398.66C467.73 398.56 468.06 398.48 468.4 398.4C473.78 396.5 476.16 390.28 477.26 384.68C477.59 382.96 477.87 381.24 478.09 379.51C478.31 377.77 478.47 376.03 478.58 374.29C478.68 372.54 478.73 370.79 478.72 369.05C478.71 367.3 478.64 365.55 478.51 363.81C477.64 352.11 474.18 340.23 477.03 328.81C478.64 322.4 482.22 316.43 482.51 309.81C482.98 298.9 474.45 289.5 473.18 278.65C472.29 271.09 475.02 263.44 474.13 255.88C473.88 253.94 473.4 252.03 472.7 250.2C472 248.37 471.08 246.63 469.97 245.02C468.85 243.41 467.55 241.94 466.08 240.64C464.61 239.34 462.99 238.22 461.26 237.31C458.85 236.07 456.26 235.24 453.88 233.87C448.45 230.72 444.98 225.05 440.05 221.15C435.12 217.25 426.91 215.78 423.2 220.85L431.28 217.68Z" />
		<path id="Layer" class="shp15" d="M431.28 216.43C429.02 216.6 426.78 216.9 424.55 217.33C422.33 217.77 420.14 218.33 417.98 219.02C415.83 219.72 413.71 220.53 411.65 221.48C409.59 222.42 407.59 223.48 405.66 224.66C403.66 225.87 401.66 227.34 400.83 229.51C400.11 231.39 400.41 233.51 400.44 235.51C400.71 252.73 381.51 265.76 382.11 282.98C382.35 289.8 385.78 296.16 386.41 302.98C387.46 314.34 380.74 324.79 374.3 334.21C375.94 334.31 377.58 334.25 379.21 334.03C380.84 333.82 382.45 333.45 384 332.93C385.56 332.42 387.07 331.75 388.5 330.95C389.94 330.15 391.29 329.22 392.55 328.16C394.24 333.79 395.57 339.53 396.53 345.33C397.49 351.13 398.08 356.99 398.29 362.86C398.51 368.74 398.35 374.62 397.81 380.48C397.28 386.33 396.37 392.15 395.1 397.89L404.31 397.89C404.54 397.87 404.76 397.87 404.99 397.88C405.22 397.88 405.45 397.9 405.67 397.93C405.9 397.96 406.12 398 406.34 398.05C406.56 398.1 406.78 398.16 407 398.23C407.2 398.32 407.4 398.43 407.59 398.54C407.78 398.66 407.97 398.78 408.15 398.91C408.32 399.04 408.5 399.19 408.66 399.34C408.82 399.49 408.98 399.64 409.13 399.81C417.74 408.39 423.51 421.05 420.22 432.75L439.82 425.4C444.51 423.64 449.27 421.85 453.35 418.95C457.43 416.05 460.85 411.84 461.71 406.9C462.24 403.9 462.07 400.32 464.54 398.58C464.84 398.42 465.15 398.27 465.47 398.13C465.78 397.99 466.1 397.85 466.42 397.74C466.74 397.62 467.07 397.51 467.4 397.41C467.73 397.31 468.06 397.23 468.4 397.15C473.78 395.25 476.16 389.03 477.26 383.43C477.6 381.71 477.88 379.99 478.1 378.25C478.32 376.52 478.49 374.77 478.59 373.03C478.7 371.28 478.75 369.53 478.74 367.78C478.73 366.03 478.67 364.28 478.54 362.54C477.67 350.84 474.21 338.96 477.06 327.54C478.67 321.13 482.25 315.16 482.54 308.54C483.01 297.63 474.48 288.23 473.21 277.38C472.32 269.82 475.05 262.18 474.16 254.61C473.91 252.67 473.43 250.76 472.73 248.93C472.03 247.1 471.11 245.36 470 243.75C468.88 242.14 467.57 240.67 466.11 239.37C464.64 238.07 463.02 236.95 461.29 236.04C458.88 234.8 456.29 233.97 453.91 232.61C448.48 229.45 445.01 223.78 440.08 219.88C435.15 215.98 426.94 214.51 423.23 219.58L431.28 216.43Z" />
		<g id="Layer" style="opacity: 0.102">
			<path id="Layer" class="shp16" d="M400.42 231.35C400.41 231.45 400.4 231.54 400.39 231.64C400.39 231.74 400.38 231.83 400.37 231.93C400.37 232.03 400.37 232.12 400.36 232.22C400.36 232.32 400.36 232.41 400.36 232.51C400.39 232.13 400.41 231.74 400.42 231.35Z" />
			<path id="Layer" class="shp16" d="M473.1 271.38C473.46 266.08 474.64 260.76 474.2 255.48C473.87 260.78 472.69 266.1 473.1 271.38Z" />
			<path id="Layer" class="shp16" d="M386.41 297.73C385.83 291.53 382.94 285.73 382.26 279.54C382.23 279.82 382.2 280.11 382.17 280.39C382.15 280.68 382.13 280.96 382.12 281.25C382.11 281.53 382.1 281.82 382.1 282.1C382.1 282.39 382.1 282.67 382.11 282.96C382.35 289.71 385.7 296.02 386.38 302.74C386.42 302.32 386.45 301.91 386.47 301.49C386.5 301.07 386.51 300.65 386.51 300.24C386.51 299.82 386.51 299.4 386.49 298.98C386.47 298.56 386.45 298.15 386.41 297.73L386.41 297.73Z" />
			<path id="Layer" class="shp16" d="M477.1 322.36C476.87 323.38 476.67 324.4 476.51 325.43C476.35 326.46 476.23 327.49 476.15 328.53C476.06 329.57 476.02 330.61 476.01 331.66C476 332.7 476.03 333.74 476.1 334.78C476.12 334.17 476.16 333.57 476.22 332.96C476.27 332.36 476.34 331.75 476.43 331.15C476.51 330.55 476.61 329.95 476.72 329.35C476.83 328.76 476.96 328.16 477.1 327.57C478.71 321.16 482.29 315.19 482.58 308.57C482.59 308.28 482.6 307.98 482.6 307.69C482.6 307.39 482.59 307.1 482.58 306.81C482.56 306.51 482.54 306.22 482.52 305.93C482.49 305.63 482.46 305.34 482.42 305.05C481.64 311 478.53 316.54 477.1 322.36Z" />
			<path id="Layer" class="shp16" d="M392.55 322.9C391.52 323.77 390.41 324.55 389.26 325.25C388.1 325.94 386.89 326.55 385.64 327.06C384.39 327.57 383.1 327.98 381.79 328.29C380.47 328.59 379.14 328.8 377.79 328.9C376.65 330.68 375.47 332.42 374.3 334.14C375.94 334.24 377.58 334.18 379.21 333.96C380.84 333.75 382.45 333.38 384 332.86C385.56 332.35 387.07 331.68 388.5 330.88C389.94 330.08 391.29 329.15 392.55 328.09C393.46 331.12 394.27 334.19 394.97 337.28C395.67 340.37 396.27 343.48 396.75 346.61C397.24 349.75 397.62 352.89 397.89 356.05C398.16 359.21 398.32 362.37 398.37 365.54C398.44 361.94 398.38 358.34 398.17 354.74C397.96 351.15 397.62 347.56 397.13 343.99C396.64 340.42 396.02 336.88 395.25 333.36C394.49 329.84 393.59 326.35 392.55 322.9L392.55 322.9Z" />
			<path id="Layer" class="shp16" d="M477.29 378.19C476.19 383.79 473.81 390.01 468.43 391.9C468.09 391.97 467.76 392.06 467.43 392.16C467.1 392.26 466.77 392.37 466.45 392.49C466.13 392.61 465.81 392.74 465.5 392.88C465.18 393.02 464.87 393.18 464.57 393.34C462.1 395.08 462.27 398.68 461.74 401.66C460.88 406.6 457.47 410.8 453.38 413.66C449.29 416.52 444.54 418.36 439.85 420.12L421.15 427.12C421.13 427.59 421.09 428.06 421.04 428.52C420.99 428.99 420.93 429.46 420.85 429.92C420.78 430.38 420.69 430.84 420.59 431.3C420.49 431.76 420.38 432.22 420.25 432.67L439.85 425.32C444.54 423.56 449.3 421.77 453.38 418.87C457.46 415.97 460.88 411.76 461.74 406.82C462.27 403.82 462.1 400.24 464.57 398.5C464.87 398.34 465.18 398.19 465.5 398.05C465.81 397.91 466.13 397.77 466.45 397.66C466.77 397.54 467.1 397.43 467.43 397.33C467.76 397.23 468.09 397.15 468.43 397.07C473.81 395.17 476.19 388.95 477.29 383.35C477.57 381.89 477.82 380.43 478.02 378.96C478.22 377.49 478.38 376.02 478.5 374.54C478.62 373.06 478.69 371.58 478.72 370.1C478.76 368.62 478.75 367.13 478.7 365.65C478.67 366.7 478.61 367.75 478.54 368.8C478.46 369.85 478.37 370.9 478.25 371.95C478.13 372.99 477.99 374.04 477.83 375.08C477.67 376.12 477.49 377.16 477.29 378.19L477.29 378.19Z" />
			<path id="Layer" class="shp16" d="M409.16 394.54C409.01 394.37 408.86 394.21 408.69 394.06C408.53 393.91 408.35 393.77 408.18 393.64C408 393.5 407.81 393.38 407.62 393.26C407.43 393.15 407.23 393.04 407.03 392.95C406.81 392.88 406.59 392.82 406.37 392.77C406.15 392.72 405.93 392.68 405.7 392.65C405.48 392.62 405.25 392.61 405.02 392.6C404.79 392.59 404.57 392.6 404.34 392.61L396.17 392.61C395.85 394.35 395.51 396.09 395.17 397.82L404.38 397.82C404.61 397.8 404.83 397.8 405.06 397.81C405.29 397.81 405.52 397.83 405.74 397.86C405.97 397.89 406.19 397.93 406.41 397.98C406.63 398.03 406.85 398.09 407.07 398.16C407.27 398.25 407.47 398.36 407.66 398.47C407.85 398.59 408.04 398.71 408.22 398.84C408.39 398.97 408.57 399.12 408.73 399.27C408.89 399.42 409.05 399.57 409.2 399.74C415.5 406.02 420.27 414.48 421.09 423.16C422.1 412.78 416.72 402.1 409.16 394.54Z" />
		</g>
		<path id="Layer" class="shp4" d="M363.47 428.62C363.47 428.62 370.91 425.5 372.57 428.62C374.23 431.74 363.47 428.62 363.47 428.62Z" />
		<path id="Layer" class="shp4" d="M366.1 433.97C366.1 433.97 373.54 430.85 375.21 433.97C376.88 437.09 366.1 433.97 366.1 433.97Z" />
	</g>
	<g id="5f43f84a-a268-4bb5-a31a-6b0c09aee323">
		<path id="Layer" class="shp0" d="M827.21 30.22C827.21 30.22 789.16 27.93 793.65 54.59C793.65 54.59 792.76 59.3 797.03 61.44C797.03 61.44 797.1 59.44 800.93 60.13C801.27 60.19 801.61 60.23 801.96 60.27C802.3 60.31 802.64 60.34 802.99 60.35C803.33 60.37 803.68 60.38 804.02 60.37C804.37 60.37 804.72 60.35 805.06 60.33C805.52 60.3 805.98 60.23 806.43 60.12C806.88 60.02 807.32 59.87 807.75 59.7C808.18 59.52 808.59 59.31 808.98 59.06C809.38 58.82 809.75 58.54 810.1 58.24L810.1 58.24C810.1 58.24 820.79 53.83 824.95 36.35C824.95 36.35 828.03 32.53 827.95 31.55L821.53 34.3C821.53 34.3 823.72 38.93 821.99 42.78C821.99 42.78 821.79 34.46 820.55 34.66C820.3 34.66 817.22 36.26 817.22 36.26C817.22 36.26 820.99 44.33 818.14 50.2C818.14 50.2 819.22 40.26 816.04 36.85L811.5 39.54C811.5 39.54 815.91 47.87 812.92 54.67C812.92 54.67 813.69 44.24 810.55 40.18L806.45 43.37C806.45 43.37 810.6 51.54 808.1 57.18C808.1 57.18 807.77 45.03 805.59 44.12C805.59 44.12 802.01 47.28 801.47 48.58C801.47 48.58 804.3 54.58 802.54 57.68C802.54 57.68 801.46 49.6 800.54 49.56C800.54 49.56 796.97 54.92 796.6 58.56C796.64 57.72 796.74 56.87 796.89 56.04C797.05 55.21 797.25 54.39 797.51 53.58C797.77 52.78 798.08 51.99 798.44 51.23C798.8 50.46 799.21 49.72 799.67 49.01C799.16 49.11 798.65 49.24 798.16 49.41C797.67 49.58 797.19 49.79 796.73 50.03C796.27 50.27 795.83 50.54 795.4 50.85C794.98 51.15 794.58 51.49 794.21 51.85C793.84 52.21 794.76 48.06 800.55 47.72C800.55 47.72 803.5 43.66 804.29 43.41C804.29 43.41 798.53 42.93 795.04 44.48C795.04 44.48 798.11 40.9 805.35 42.48L809.35 39.18C809.35 39.18 801.77 38.18 798.55 39.29C798.55 39.29 802.25 36.13 810.44 38.43L814.84 35.8C814.84 35.8 808.38 34.4 804.53 34.91C804.53 34.91 808.59 32.72 816.13 35.09L819.28 33.68C819.28 33.68 814.54 32.75 813.16 32.6C811.78 32.45 811.7 32.07 811.7 32.07C812.45 31.95 813.2 31.87 813.95 31.85C814.71 31.83 815.46 31.87 816.21 31.95C816.97 32.03 817.71 32.17 818.44 32.36C819.17 32.55 819.89 32.78 820.59 33.07C821.29 33.36 827.32 30.64 827.21 30.22Z" />
		<path id="Layer" class="shp0" d="M772.98 8.6C772.98 8.6 740.98 29.31 760.39 48.12C760.39 48.12 762.46 52.44 767.17 51.64C767.17 51.64 766.05 50 769.54 48.27C769.85 48.11 770.15 47.95 770.45 47.78C770.75 47.6 771.05 47.42 771.33 47.23C771.62 47.04 771.9 46.84 772.18 46.63C772.46 46.42 772.73 46.2 772.99 45.98C773.34 45.68 773.67 45.35 773.97 45C774.27 44.65 774.54 44.27 774.79 43.88C775.03 43.48 775.23 43.06 775.41 42.63C775.58 42.2 775.72 41.76 775.82 41.31L775.82 41.31C775.82 41.31 781.82 31.41 774.82 14.87C774.82 14.87 775.04 9.97 774.36 9.25L770.82 15.25C770.82 15.25 775.33 17.68 776.22 21.8C776.22 21.8 771.13 15.23 770.22 16.12C770.04 16.3 768.48 19.39 768.48 19.39C768.48 19.39 776.31 23.65 777.48 30.06C777.48 30.06 772.48 21.41 767.87 20.56L765.79 25.36C765.79 25.36 774.29 29.46 775.91 36.71C775.91 36.71 770.34 27.85 765.41 26.44L764.01 31.44C764.01 31.44 772.21 35.6 773.52 41.64C773.52 41.64 766.06 32.06 763.76 32.64C763.76 32.64 762.76 37.3 763.08 38.64C763.08 38.64 768.9 41.76 769.34 45.34C769.34 45.34 763.68 39.47 762.95 39.96C762.95 39.96 763.25 46.39 765.12 49.57C764.66 48.86 764.24 48.13 763.87 47.37C763.5 46.61 763.18 45.82 762.91 45.02C762.64 44.22 762.43 43.4 762.26 42.57C762.1 41.74 761.99 40.9 761.94 40.06C761.59 40.44 761.26 40.85 760.96 41.28C760.67 41.7 760.4 42.15 760.17 42.62C759.94 43.09 759.75 43.57 759.59 44.07C759.43 44.56 759.31 45.07 759.22 45.58C759.13 46.09 757.42 42.2 761.89 38.5C761.89 38.5 761.89 33.5 762.34 32.81C762.34 32.81 757.42 35.81 755.52 39.15C755.52 39.15 755.88 34.45 762.67 31.47L763.97 26.42C763.97 26.42 757.25 30.08 755.34 32.91C755.34 32.91 756.45 28.17 764.4 25.17L766.4 20.44C766.4 20.44 760.4 23.15 757.56 25.84C757.56 25.84 759.56 21.66 767.02 19.11L768.72 16.11C768.72 16.11 764.35 18.17 763.15 18.87C761.95 19.57 761.66 19.31 761.66 19.31C762.19 18.77 762.75 18.26 763.35 17.8C763.94 17.34 764.57 16.91 765.22 16.54C765.88 16.16 766.56 15.83 767.26 15.54C767.96 15.26 768.68 15.02 769.41 14.84C770.14 14.66 773.32 8.88 772.98 8.6Z" />
		<path id="Layer" class="shp0" d="M724.28 32.73C724.28 32.73 705.15 65.73 730.98 73.66C730.98 73.66 734.79 76.57 738.62 73.66C738.62 73.66 736.89 72.72 739.21 69.59C739.41 69.31 739.6 69.03 739.79 68.74C739.97 68.45 740.15 68.15 740.32 67.85C740.48 67.55 740.64 67.24 740.79 66.93C740.94 66.62 741.08 66.31 741.21 65.99C741.39 65.56 741.53 65.12 741.64 64.67C741.75 64.22 741.82 63.76 741.86 63.3C741.89 62.84 741.89 62.37 741.85 61.91C741.81 61.45 741.73 60.99 741.62 60.54L741.62 60.54C741.62 60.54 742.47 49 728.72 37.43C728.72 37.43 726.72 32.97 725.72 32.64L725.29 39.64C725.29 39.64 730.41 39.76 733.08 43.03C733.08 43.03 725.56 39.48 725.18 40.67C725.1 40.91 725.11 44.37 725.11 44.37C725.11 44.37 734.1 44.64 738.1 49.82C738.1 49.82 729.7 44.39 725.23 45.71L725.55 50.93C725.55 50.93 734.98 50.73 739.71 56.46C739.71 56.46 730.71 51.09 725.71 52.07L726.71 57.16C726.71 57.16 735.91 57.16 739.81 61.94C739.81 61.94 728.81 56.78 727.02 58.31C727.02 58.31 728.23 62.93 729.15 64C729.15 64 735.75 64.14 737.77 67.13C737.77 67.13 730.06 64.46 729.63 65.24C729.63 65.24 732.82 70.83 735.93 72.81C735.2 72.39 734.49 71.93 733.82 71.42C733.14 70.92 732.5 70.37 731.9 69.78C731.3 69.19 730.73 68.56 730.21 67.89C729.69 67.23 729.21 66.53 728.78 65.81C728.64 66.31 728.53 66.82 728.46 67.34C728.39 67.85 728.36 68.37 728.37 68.89C728.38 69.41 728.42 69.93 728.5 70.44C728.58 70.96 728.7 71.46 728.86 71.96C729.02 72.46 725.72 69.77 728.02 64.44C728.02 64.44 725.72 59.98 725.85 59.17C725.85 59.17 722.85 64.1 722.65 67.91C722.65 67.91 720.83 63.56 725.53 57.83L724.4 52.73C724.4 52.73 720.07 59.04 719.65 62.43C719.65 62.43 718.49 57.7 724.22 51.43L723.84 46.32C723.84 46.32 719.7 51.47 718.42 55.14C718.42 55.14 718.28 50.52 723.79 44.85L723.94 41.4C723.94 41.4 720.94 45.21 720.23 46.4C719.52 47.59 719.1 47.42 719.1 47.42C719.32 46.7 719.6 45.99 719.92 45.31C720.24 44.62 720.61 43.96 721.02 43.33C721.43 42.69 721.89 42.09 722.38 41.52C722.88 40.94 723.41 40.41 723.98 39.91C724.55 39.41 724.7 32.82 724.28 32.73Z" />
	</g>
	<path id="Layer" class="shp2" d="M888.53 408.91C882.74 408.91 877.52 412.4 875.31 417.74C873.09 423.09 874.32 429.25 878.41 433.34C882.5 437.43 888.66 438.66 894.01 436.44C899.35 434.23 902.84 429.01 902.84 423.22C902.83 421.34 902.46 419.48 901.74 417.75C901.02 416.02 899.96 414.44 898.64 413.11C897.31 411.79 895.73 410.73 894 410.01C892.27 409.29 890.41 408.92 888.53 408.91L888.53 408.91ZM846.69 296.62L846.69 310.93L861 310.93L886.76 363.11L875.99 380.64C875.7 381.16 875.44 381.69 875.22 382.24C874.99 382.79 874.8 383.35 874.65 383.92C874.5 384.5 874.39 385.08 874.31 385.67C874.24 386.26 874.2 386.85 874.2 387.44C874.2 397.02 880.75 401.75 889.63 401.75L973.3 401.75L973.3 387.99L891.38 387.99C891.14 388 890.9 387.97 890.68 387.88C890.45 387.8 890.25 387.67 890.08 387.5C889.91 387.33 889.78 387.13 889.7 386.9C889.61 386.68 889.58 386.44 889.59 386.2C889.64 386.05 889.69 385.89 889.74 385.74C889.8 385.59 889.86 385.44 889.92 385.29C889.99 385.14 890.05 384.99 890.12 384.85C890.2 384.7 890.27 384.56 890.35 384.42L897.5 373.13L950.81 373.13C952.09 373.14 953.37 372.97 954.61 372.64C955.84 372.3 957.03 371.8 958.13 371.14C959.23 370.48 960.23 369.67 961.11 368.74C961.99 367.8 962.74 366.76 963.33 365.62L989.1 321.31C989.23 321.03 989.33 320.74 989.43 320.45C989.52 320.16 989.6 319.86 989.66 319.56C989.72 319.26 989.76 318.96 989.79 318.65C989.82 318.34 989.83 318.04 989.82 317.73C989.81 316.81 989.62 315.9 989.25 315.06C988.88 314.21 988.35 313.45 987.68 312.82C987.01 312.18 986.22 311.69 985.36 311.36C984.5 311.04 983.58 310.89 982.66 310.93L876.75 310.93L869.95 296.62L846.69 296.62ZM958.98 408.91C953.19 408.91 947.98 412.4 945.77 417.75C943.55 423.1 944.78 429.25 948.87 433.34C952.97 437.43 959.12 438.66 964.47 436.44C969.81 434.22 973.3 429.01 973.3 423.22C973.29 421.34 972.92 419.48 972.2 417.75C971.48 416.01 970.42 414.44 969.09 413.11C967.76 411.78 966.19 410.73 964.45 410.01C962.72 409.29 960.86 408.91 958.98 408.91L958.98 408.91Z" />
	<path id="Layer" class="shp7" d="M970.67 337.21L958.67 337.21L958.67 325.21L949.67 325.21L949.67 337.21L937.67 337.21L937.67 346.21L949.67 346.21L949.67 358.21L958.67 358.21L958.67 346.21L970.67 346.21L970.67 337.21L970.67 337.21Z" />
</svg>